<svg width="298" height="272" viewBox="0 0 298 272" fill="none" xmlns="http://www.w3.org/2000/svg">
<path opacity="0.4" fill-rule="evenodd" clip-rule="evenodd" d="M90.0348 2.64066C66.1034 -1.57908 43.2825 14.4003 39.0627 38.3317L16.1411 168.326C11.9214 192.258 27.9008 215.079 51.8322 219.298L66.756 221.93C67.4892 222.242 68.2349 222.537 68.9928 222.813L193.032 267.959C215.867 276.271 241.116 264.497 249.428 241.662L294.574 117.622C302.885 94.7873 291.112 69.5382 268.277 61.2269L254.536 56.2257C249.894 40.8273 236.949 28.5457 220.029 25.5622L90.0348 2.64066Z" fill="#F2F2F2"/>
<path fill-rule="evenodd" clip-rule="evenodd" d="M67.3291 220L67.5401 220.09C68.2403 220.388 68.9527 220.67 69.6768 220.933L193.716 266.08C215.513 274.013 239.615 262.775 247.548 240.978L292.695 116.938C300.628 95.1412 289.39 71.0398 267.593 63.1063L252.91 57.7623L252.621 56.8029C248.189 42.0992 235.83 30.3792 219.682 27.5318L89.6875 4.61028C66.8439 0.582338 45.0603 15.8354 41.0323 38.679L18.1108 168.674C14.0828 191.517 29.3359 213.301 52.1795 217.329L67.3291 220ZM39.0627 38.3317C43.2824 14.4003 66.1034 -1.57908 90.0348 2.64066L220.029 25.5622C236.949 28.5457 249.894 40.8273 254.536 56.2257L268.277 61.2269C291.112 69.5382 302.885 94.7873 294.574 117.622L249.428 241.662C241.116 264.497 215.867 276.271 193.032 267.959L68.9928 222.813C68.2349 222.537 67.4892 222.242 66.756 221.93L51.8322 219.298C27.9008 215.079 11.9214 192.258 16.1411 168.326L39.0627 38.3317Z" fill="url(#paint0_linear_8960_14686)"/>
<path opacity="0.5" d="M39.0627 38.3317C43.2824 14.4003 66.1034 -1.57908 90.0348 2.64066L220.029 25.5622C243.961 29.782 259.94 52.6029 255.72 76.5343L232.799 206.529C228.579 230.46 205.758 246.44 181.827 242.22L51.8322 219.298C27.9008 215.079 11.9214 192.258 16.1411 168.326L39.0627 38.3317Z" fill="#F2F2F2"/>
<path fill-rule="evenodd" clip-rule="evenodd" d="M219.682 27.5318L89.6875 4.61028C66.8439 0.582339 45.0603 15.8354 41.0323 38.679L18.1108 168.674C14.0828 191.517 29.3359 213.301 52.1795 217.329L182.174 240.25C205.018 244.278 226.801 229.025 230.829 206.182L253.751 76.187C257.779 53.3434 242.526 31.5598 219.682 27.5318ZM90.0348 2.64066C66.1034 -1.57908 43.2824 14.4003 39.0627 38.3317L16.1411 168.326C11.9214 192.258 27.9008 215.079 51.8322 219.298L181.827 242.22C205.758 246.44 228.579 230.46 232.799 206.529L255.72 76.5343C259.94 52.6029 243.961 29.782 220.029 25.5622L90.0348 2.64066Z" fill="url(#paint1_linear_8960_14686)"/>
<g clip-path="url(#clip0_8960_14686)">
<rect width="220" height="220" fill="#F2F2F2"/>
<path fill-rule="evenodd" clip-rule="evenodd" d="M11.7856 108.036C11.7856 156.788 51.4221 196.429 100.169 196.429C131.273 196.429 160.406 179.804 176.281 153.014C177.3 151.315 176.723 149.104 175.023 148.085C173.323 147.065 171.114 147.643 170.094 149.342C155.511 173.957 128.724 189.255 100.169 189.255C55.3996 189.255 18.9923 152.844 18.9923 108.036C18.9923 63.2274 55.3996 26.8164 100.169 26.8164C128.724 26.8164 155.511 42.1153 170.094 66.7293C171.114 68.4292 173.323 69.0071 175.023 67.9873C176.723 66.9674 177.3 64.7572 176.281 63.0577C160.44 36.2677 131.273 19.6431 100.169 19.6431C51.4221 19.6431 11.7856 59.2839 11.7856 108.036Z" fill="url(#paint2_linear_8960_14686)"/>
<path fill-rule="evenodd" clip-rule="evenodd" d="M208.012 109.999C208.012 126.569 195.19 137.691 178.118 137.498C161.42 137.304 149.177 126.15 149.177 109.999C149.177 93.8483 161.182 82.5975 178.356 82.5006C195.701 82.4041 208.012 93.7838 208.012 109.999ZM170.602 126.021C171.044 129.502 171.861 131.953 173.051 133.371C175.466 136.273 181.791 136.273 184.206 133.371C185.396 131.953 186.212 129.502 186.62 126.021C187.062 122.539 187.266 117.188 187.266 109.999C187.266 102.81 187.062 97.4591 186.62 93.9772C186.178 90.4956 185.362 88.0456 184.206 86.6274C181.791 83.7258 175.466 83.7258 173.051 86.6274C171.861 88.0456 171.044 90.4956 170.602 93.9772C170.16 97.4591 169.956 102.81 169.956 109.999C169.956 117.188 170.16 122.539 170.602 126.021Z" fill="#2E2A94"/>
<path fill-rule="evenodd" clip-rule="evenodd" d="M143.702 132.232C144.382 134.22 145.674 135.479 147.544 135.943V137.434H120.508V135.943C122.549 135.413 123.875 134.154 124.419 132.199C124.963 130.244 125.235 127.427 125.235 123.816V100.954C125.235 94.5589 122.888 91.378 118.229 91.378C116.495 91.378 114.794 92.1403 113.128 93.6312C111.462 95.1221 110.441 96.8451 110.033 98.7671L110.135 100.855V123.849C110.135 127.461 110.475 130.277 111.156 132.298C111.836 134.286 113.128 135.545 114.999 136.009V137.5H87.9622V136.009C90.0027 135.479 91.329 134.22 91.8731 132.265C92.4172 130.31 92.6891 127.494 92.6891 123.882V101.02C92.6891 97.7728 92.1449 95.3875 91.0229 93.797C89.9005 92.2065 88.1661 91.4113 85.8196 91.4113C84.0851 91.4113 82.4186 92.1403 80.8542 93.5983C79.2561 95.0559 78.2696 96.6464 77.8956 98.3364V123.981C77.8956 127.593 78.2017 130.376 78.8479 132.298C79.4942 134.22 80.7863 135.446 82.7588 136.009V137.5H55.7224V136.009C57.7629 135.479 59.055 134.253 59.5653 132.364C60.0752 130.476 60.3475 127.693 60.3475 123.981V97.3091C60.3475 95.2217 59.9393 93.6312 59.0892 92.5048C58.2728 91.3784 56.6747 90.2849 54.2939 89.2243V87.833L77.8956 83.0949V94.526C85.1053 79.384 107.313 78.5888 109.931 95.0892C111.292 91.61 113.502 88.7607 116.563 86.4745C128.942 77.3628 142.647 84.6853 142.647 100.623V123.849C142.647 127.461 142.987 130.277 143.667 132.298L143.702 132.232Z" fill="#2E2A94"/>
</g>
<rect x="1" y="1" width="218" height="218" rx="43" stroke="url(#paint3_linear_8960_14686)" stroke-width="2"/>
<defs>
<linearGradient id="paint0_linear_8960_14686" x1="15.4653" y1="-4.75166" x2="272.304" y2="276.753" gradientUnits="userSpaceOnUse">
<stop stop-color="white" stop-opacity="0.6"/>
<stop offset="0.5" stop-color="white" stop-opacity="0"/>
<stop offset="1" stop-color="white" stop-opacity="0.6"/>
</linearGradient>
<linearGradient id="paint1_linear_8960_14686" x1="47.6582" y1="-10.4164" x2="217.163" y2="243.373" gradientUnits="userSpaceOnUse">
<stop stop-color="white" stop-opacity="0.6"/>
<stop offset="0.5" stop-color="white" stop-opacity="0"/>
<stop offset="1" stop-color="white" stop-opacity="0.6"/>
</linearGradient>
<linearGradient id="paint2_linear_8960_14686" x1="65.4277" y1="54.9662" x2="137.335" y2="164.702" gradientUnits="userSpaceOnUse">
<stop stop-color="#FDD00F"/>
<stop offset="1" stop-color="#FAAD1D"/>
</linearGradient>
<linearGradient id="paint3_linear_8960_14686" x1="1.07139e-06" y1="-5.5" x2="211" y2="215" gradientUnits="userSpaceOnUse">
<stop stop-color="white" stop-opacity="0.6"/>
<stop offset="0.5" stop-color="white" stop-opacity="0"/>
<stop offset="1" stop-color="white" stop-opacity="0.6"/>
</linearGradient>
<clipPath id="clip0_8960_14686">
<rect width="220" height="220" rx="44" fill="white"/>
</clipPath>
</defs>
</svg>
