<svg width="298" height="272" viewBox="0 0 298 272" fill="none" xmlns="http://www.w3.org/2000/svg">
<path opacity="0.4" fill-rule="evenodd" clip-rule="evenodd" d="M90.0348 2.64066C66.1034 -1.57908 43.2825 14.4003 39.0627 38.3317L16.1411 168.326C11.9214 192.258 27.9008 215.079 51.8322 219.298L66.756 221.93C67.4892 222.242 68.2349 222.537 68.9928 222.813L193.032 267.959C215.867 276.271 241.116 264.497 249.428 241.662L294.574 117.622C302.885 94.7873 291.112 69.5382 268.277 61.2269L254.536 56.2257C249.894 40.8273 236.949 28.5457 220.029 25.5622L90.0348 2.64066Z" fill="#5F17C5"/>
<path fill-rule="evenodd" clip-rule="evenodd" d="M67.3291 220L67.5401 220.09C68.2403 220.388 68.9527 220.67 69.6768 220.933L193.716 266.08C215.513 274.013 239.615 262.775 247.548 240.978L292.695 116.938C300.628 95.1412 289.39 71.0398 267.593 63.1063L252.91 57.7623L252.621 56.8029C248.189 42.0992 235.83 30.3792 219.682 27.5318L89.6875 4.61028C66.8439 0.582338 45.0603 15.8354 41.0323 38.679L18.1108 168.674C14.0828 191.517 29.3359 213.301 52.1795 217.329L67.3291 220ZM39.0627 38.3317C43.2824 14.4003 66.1034 -1.57908 90.0348 2.64066L220.029 25.5622C236.949 28.5457 249.894 40.8273 254.536 56.2257L268.277 61.2269C291.112 69.5382 302.885 94.7873 294.574 117.622L249.428 241.662C241.116 264.497 215.867 276.271 193.032 267.959L68.9928 222.813C68.2349 222.537 67.4892 222.242 66.756 221.93L51.8322 219.298C27.9008 215.079 11.9214 192.258 16.1411 168.326L39.0627 38.3317Z" fill="url(#paint0_linear_8960_14686)"/>
<path opacity="0.5" d="M39.0627 38.3317C43.2825 14.4003 66.1034 -1.57908 90.0348 2.64066L220.029 25.5622C243.961 29.782 259.94 52.6029 255.72 76.5343L232.799 206.529C228.579 230.46 205.758 246.44 181.827 242.22L51.8322 219.298C27.9008 215.079 11.9214 192.258 16.1411 168.326L39.0627 38.3317Z" fill="#5F17C5"/>
<path fill-rule="evenodd" clip-rule="evenodd" d="M219.682 27.5318L89.6875 4.61028C66.8439 0.582339 45.0603 15.8354 41.0323 38.679L18.1108 168.674C14.0828 191.517 29.3359 213.301 52.1795 217.329L182.174 240.25C205.018 244.278 226.801 229.025 230.829 206.182L253.751 76.187C257.779 53.3434 242.526 31.5598 219.682 27.5318ZM90.0348 2.64066C66.1034 -1.57908 43.2824 14.4003 39.0627 38.3317L16.1411 168.326C11.9214 192.258 27.9008 215.079 51.8322 219.298L181.827 242.22C205.758 246.44 228.579 230.46 232.799 206.529L255.72 76.5343C259.94 52.6029 243.961 29.782 220.029 25.5622L90.0348 2.64066Z" fill="url(#paint1_linear_8960_14686)"/>
<g clip-path="url(#clip0_8960_14686)">
<rect width="220" height="220" fill="#5F17C5"/>
<path d="M185.666 100.992C185.666 105.967 181.633 110 176.658 110C174.874 110 173.213 109.48 171.816 108.587C170.681 107.864 169.722 106.895 169.009 105.75C168.148 104.37 167.65 102.739 167.65 100.992C167.65 96.0162 171.683 91.9839 176.658 91.9839C181.633 91.9839 185.666 96.0162 185.666 100.992Z" fill="#17C55F"/>
<path d="M55.5964 122.77C58.6641 122.77 61.1265 123.771 62.9818 125.774C64.8363 127.774 65.7637 130.441 65.7637 133.771V150.088H57.7367V134.464C57.7367 133.116 57.4056 132.054 56.7466 131.274C56.0865 130.495 55.1324 130.104 53.8839 130.104C52.5633 130.104 51.5361 130.549 50.8064 131.433C50.075 132.32 49.7093 133.541 49.7093 135.1V150.088H41.6833V134.464C41.6833 133.116 41.3514 132.054 40.6922 131.274C40.0307 130.495 39.0781 130.104 37.8297 130.104C36.5091 130.104 35.4819 130.549 34.7521 131.433C34.0207 132.32 33.655 133.541 33.655 135.1V150.088H25.6267V123.514H33.655V125.959C35.1185 123.834 37.5078 122.77 40.8267 122.77C43.9304 122.77 46.2658 123.939 47.8357 126.277C49.4758 123.939 52.0646 122.77 55.5964 122.77Z" fill="white"/>
<path d="M79.7312 141.532C80.909 142.7 82.4422 143.285 84.3345 143.285C86.2236 143.285 87.7593 142.7 88.935 141.532C90.1132 140.363 90.702 138.785 90.702 136.801C90.702 134.817 90.1132 133.24 88.935 132.07C87.7593 130.902 86.2236 130.317 84.3345 130.317C82.4422 130.317 80.909 130.902 79.7312 132.07C78.5533 133.24 77.9642 134.817 77.9642 136.801C77.9642 138.785 78.5533 140.363 79.7312 141.532ZM90.702 123.514H98.7279V150.088H90.702V147.591C88.8103 149.753 86.153 150.833 82.7283 150.833C79.1965 150.833 76.1817 149.477 73.6826 146.766C71.1867 144.055 69.9382 140.733 69.9382 136.801C69.9382 132.868 71.1867 129.546 73.6826 126.835C76.1817 124.124 79.1965 122.77 82.7283 122.77C86.153 122.77 88.8103 123.851 90.702 126.011V123.514Z" fill="white"/>
<path d="M112.644 128.243C113.142 126.542 114.151 125.238 115.667 124.336C117.182 123.432 118.85 122.981 120.672 122.981V132.016C118.708 131.697 116.879 132.024 115.187 132.998C113.49 133.975 112.644 135.665 112.644 138.075V150.086H104.615V123.512H112.644V128.243Z" fill="white"/>
<path d="M157.524 134.038H169.029C168.246 131.239 166.355 129.838 163.357 129.838C160.254 129.838 158.308 131.239 157.524 134.038ZM157.685 139.989C158.611 142.471 160.752 143.71 164.107 143.71C166.281 143.71 167.995 143.037 169.245 141.69L175.666 145.357C173.025 149.008 169.137 150.832 164.001 150.832C159.504 150.832 155.91 149.503 153.216 146.846C150.522 144.189 149.176 140.839 149.176 136.801C149.176 132.797 150.505 129.458 153.163 126.782C155.819 124.107 159.237 122.77 163.412 122.77C167.299 122.77 170.537 124.107 173.124 126.782C175.711 129.458 177.003 132.797 177.003 136.801C177.003 137.935 176.897 138.999 176.682 139.989H157.685Z" fill="white"/>
<path d="M196.429 131.166H190.917V140.572C190.917 141.636 191.345 142.309 192.201 142.592C193.058 142.876 194.466 142.964 196.429 142.858V150.086C191.327 150.617 187.796 150.13 185.834 148.625C183.87 147.12 182.889 144.435 182.889 140.572V131.166H178.607V123.512H182.889V117.362H190.917V123.512H196.429V131.166Z" fill="white"/>
<path d="M132.443 138.447L140.471 150.087H149.835L140.095 136.799L150.103 123.512H141.006L132.443 135.237V109.998L124.415 115.372V150.087H132.443V138.447Z" fill="white"/>
<path d="M33.0439 90.4385C33.0439 90.9696 33.498 91.4045 34.4084 91.7403C35.3172 92.0776 36.4151 92.4149 37.6996 92.7503C38.9834 93.0876 40.2679 93.521 41.5524 94.0536C42.8369 94.5847 43.934 95.4613 44.8451 96.6831C45.7533 97.9067 46.2081 99.4395 46.2081 101.28C46.2081 104.151 45.1386 106.323 42.9975 107.792C40.8571 109.262 38.2159 109.998 35.0783 109.998C29.44 109.998 25.6049 107.89 23.5706 103.672L30.5295 99.7396C31.2409 101.832 32.7582 102.875 35.0783 102.875C37.0036 102.875 37.9662 102.326 37.9662 101.228C37.9662 100.697 37.5121 100.255 36.6017 99.8989C35.6929 99.5458 34.5958 99.1999 33.3113 98.8627C32.0268 98.5279 30.7423 98.0847 29.4577 97.5338C28.1739 96.9843 27.0761 96.1261 26.1673 94.9561C25.2569 93.7866 24.8029 92.3529 24.8029 90.6522C24.8029 87.8872 25.81 85.7433 27.826 84.2203C29.8418 82.6972 32.3302 81.9341 35.2911 81.9341C37.5022 81.9341 39.5181 82.4219 41.3396 83.3955C43.1588 84.372 44.6201 85.779 45.727 87.6216L38.8773 91.2892C38.0207 89.7298 36.8245 88.9515 35.2911 88.9515C33.7938 88.9515 33.0439 89.4466 33.0439 90.4385Z" fill="white"/>
<path d="M89.8759 100.697C91.0538 101.865 92.5873 102.45 94.4786 102.45C96.3688 102.45 97.9044 101.865 99.0798 100.697C100.258 99.5274 100.847 97.9503 100.847 95.9657C100.847 93.9819 100.258 92.4048 99.0798 91.2345C97.9044 90.0671 96.3688 89.4819 94.4786 89.4819C92.5873 89.4819 91.0538 90.0671 89.8759 91.2345C88.6984 92.4048 88.109 93.9819 88.109 95.9657C88.109 97.9503 88.6984 99.5274 89.8759 100.697ZM100.847 82.6789H108.873V109.253H100.847V106.756C98.9555 108.918 96.2978 109.998 92.873 109.998C89.3412 109.998 86.3269 108.642 83.8277 105.931C81.3315 103.22 80.083 99.8982 80.083 95.9657C80.083 92.0333 81.3315 88.7112 83.8277 86.0002C86.3269 83.2892 89.3412 81.9341 92.873 81.9341C96.2978 81.9341 98.9555 83.0161 100.847 85.1762V82.6789Z" fill="white"/>
<path d="M122.788 87.4093C123.287 85.7087 124.296 84.4047 125.812 83.5028C127.327 82.5988 128.995 82.147 130.817 82.147V91.1825C128.853 90.8629 127.024 91.1901 125.331 92.1644C123.635 93.1412 122.788 94.8318 122.788 97.2415V109.253H114.76V82.6781H122.788V87.4093Z" fill="white"/>
<path d="M140.768 93.2029H152.273C151.489 90.4043 149.598 89.0027 146.601 89.0027C143.497 89.0027 141.551 90.4043 140.768 93.2029ZM140.928 99.1534C141.855 101.636 143.996 102.875 147.351 102.875C149.525 102.875 151.238 102.202 152.488 100.855L158.91 104.522C156.269 108.173 152.38 109.997 147.244 109.997C142.747 109.997 139.153 108.668 136.46 106.011C133.765 103.354 132.419 100.004 132.419 95.9657C132.419 91.9616 133.749 88.6233 136.405 85.9469C139.063 83.2719 142.48 81.9341 146.655 81.9341C150.542 81.9341 153.78 83.2719 156.368 85.9469C158.954 88.6233 160.247 91.9616 160.247 95.9657C160.247 97.0996 160.14 98.164 159.925 99.1534H140.928Z" fill="white"/>
<path d="M65.9018 81.9355C68.7558 81.9355 71.1382 82.9112 73.046 84.8601C74.955 86.8087 75.9098 89.5013 75.9098 92.9373V109.254H67.8817V94.1068C67.8817 92.5481 67.4453 91.3515 66.5709 90.5192C65.6967 89.6869 64.5812 89.27 63.2268 89.27C61.6926 89.27 60.4787 89.7309 59.5884 90.6536C58.6955 91.5735 58.2502 92.9373 58.2502 94.7453V109.254H50.2217V74.5397L58.2502 69.166V85.1776C59.8557 83.0175 62.4049 81.9355 65.9018 81.9355Z" fill="white"/>
</g>
<rect x="1" y="1" width="218" height="218" rx="43" stroke="url(#paint2_linear_8960_14686)" stroke-width="2"/>
<defs>
<linearGradient id="paint0_linear_8960_14686" x1="15.4653" y1="-4.75166" x2="272.304" y2="276.753" gradientUnits="userSpaceOnUse">
<stop stop-color="white" stop-opacity="0.6"/>
<stop offset="0.5" stop-color="white" stop-opacity="0"/>
<stop offset="1" stop-color="white" stop-opacity="0.6"/>
</linearGradient>
<linearGradient id="paint1_linear_8960_14686" x1="47.6582" y1="-10.4164" x2="217.163" y2="243.373" gradientUnits="userSpaceOnUse">
<stop stop-color="white" stop-opacity="0.6"/>
<stop offset="0.5" stop-color="white" stop-opacity="0"/>
<stop offset="1" stop-color="white" stop-opacity="0.6"/>
</linearGradient>
<linearGradient id="paint2_linear_8960_14686" x1="1.07139e-06" y1="-5.5" x2="211" y2="215" gradientUnits="userSpaceOnUse">
<stop stop-color="white" stop-opacity="0.6"/>
<stop offset="0.5" stop-color="white" stop-opacity="0"/>
<stop offset="1" stop-color="white" stop-opacity="0.6"/>
</linearGradient>
<clipPath id="clip0_8960_14686">
<rect width="220" height="220" rx="44" fill="white"/>
</clipPath>
</defs>
</svg>
