<svg width="298" height="272" viewBox="0 0 298 272" fill="none" xmlns="http://www.w3.org/2000/svg">
<path opacity="0.4" fill-rule="evenodd" clip-rule="evenodd" d="M90.0348 2.64066C66.1034 -1.57908 43.2825 14.4003 39.0627 38.3317L16.1411 168.326C11.9214 192.258 27.9008 215.079 51.8322 219.298L66.756 221.93C67.4892 222.242 68.2349 222.537 68.9928 222.813L193.032 267.959C215.867 276.271 241.116 264.497 249.428 241.662L294.574 117.622C302.885 94.7873 291.112 69.5382 268.277 61.2269L254.536 56.2257C249.894 40.8273 236.949 28.5457 220.029 25.5622L90.0348 2.64066Z" fill="#151515"/>
<path fill-rule="evenodd" clip-rule="evenodd" d="M67.3291 220L67.5401 220.09C68.2403 220.388 68.9527 220.67 69.6768 220.933L193.716 266.08C215.513 274.013 239.615 262.775 247.548 240.978L292.695 116.938C300.628 95.1412 289.39 71.0398 267.593 63.1063L252.91 57.7623L252.621 56.8029C248.189 42.0992 235.83 30.3792 219.682 27.5318L89.6875 4.61028C66.8439 0.582338 45.0603 15.8354 41.0323 38.679L18.1108 168.674C14.0828 191.517 29.3359 213.301 52.1795 217.329L67.3291 220ZM39.0627 38.3317C43.2824 14.4003 66.1034 -1.57908 90.0348 2.64066L220.029 25.5622C236.949 28.5457 249.894 40.8273 254.536 56.2257L268.277 61.2269C291.112 69.5382 302.885 94.7873 294.574 117.622L249.428 241.662C241.116 264.497 215.867 276.271 193.032 267.959L68.9928 222.813C68.2349 222.537 67.4892 222.242 66.756 221.93L51.8322 219.298C27.9008 215.079 11.9214 192.258 16.1411 168.326L39.0627 38.3317Z" fill="url(#paint0_linear_8960_14686)"/>
<path opacity="0.5" d="M39.0627 38.3317C43.2825 14.4003 66.1034 -1.57908 90.0348 2.64066L220.029 25.5622C243.961 29.782 259.94 52.6029 255.72 76.5343L232.799 206.529C228.579 230.46 205.758 246.44 181.827 242.22L51.8322 219.298C27.9008 215.079 11.9214 192.258 16.1411 168.326L39.0627 38.3317Z" fill="#1B1B1B"/>
<path fill-rule="evenodd" clip-rule="evenodd" d="M219.682 27.5318L89.6875 4.61028C66.8439 0.582339 45.0603 15.8354 41.0323 38.679L18.1108 168.674C14.0828 191.517 29.3359 213.301 52.1795 217.329L182.174 240.25C205.018 244.278 226.801 229.025 230.829 206.182L253.751 76.187C257.779 53.3434 242.526 31.5598 219.682 27.5318ZM90.0348 2.64066C66.1034 -1.57908 43.2824 14.4003 39.0627 38.3317L16.1411 168.326C11.9214 192.258 27.9008 215.079 51.8322 219.298L181.827 242.22C205.758 246.44 228.579 230.46 232.799 206.529L255.72 76.5343C259.94 52.6029 243.961 29.782 220.029 25.5622L90.0348 2.64066Z" fill="url(#paint1_linear_8960_14686)"/>
<g clip-path="url(#clip0_8960_14686)">
<rect width="220" height="220" fill="url(#paint2_linear_8960_14686)"/>
<path d="M53.4645 77.7363C50.0184 77.7363 47.1428 80.5268 47.1428 83.89V129.137C47.1428 132.431 50.0184 135.223 53.4645 135.223C56.9107 135.223 59.714 132.432 59.714 129.137V83.89C59.714 80.5268 56.9093 77.7363 53.4645 77.7363Z" fill="white"/>
<path d="M170.529 95.3278C169.055 91.8963 166.797 88.8772 164.017 86.1775C161.238 83.638 157.957 81.5109 154.298 80.0473C150.566 78.5838 146.574 77.8507 142.416 77.8507H130.2C129.844 77.7588 129.511 77.7588 129.155 77.7588C125.52 77.7588 122.572 80.527 122.572 83.9809V129.046C122.572 132.478 125.353 135.108 128.894 135.268H142.416C146.574 135.268 150.566 134.444 154.298 132.98C157.934 131.516 161.236 129.459 164.017 126.919C166.797 124.128 169.055 121.2 170.529 117.677C172.097 114.156 172.857 110.472 172.857 106.56C172.857 102.694 172.097 98.8514 170.529 95.329V95.3278ZM155.059 118.25C151.637 121.475 147.121 123.122 142.179 123.122H135.145V89.8376H142.179C147.123 89.8376 151.637 91.6453 155.059 94.801C158.481 97.9344 160.288 102.075 160.288 106.536C160.288 110.996 158.482 115.114 155.059 118.249V118.25Z" fill="white"/>
<path d="M132.67 62.8671L114.111 45.001C112.827 43.766 111.116 43.171 109.429 43.2169C107.742 43.171 106.031 43.7424 104.748 45.001L86.1878 62.8671C83.7161 65.2462 83.7161 69.089 86.1878 71.4683C88.6595 73.8474 92.6516 73.8474 95.1231 71.4683L103.511 63.3938V111.958L81.1489 80.8249C80.0326 78.9488 77.9649 77.7138 75.5888 77.7138C72.0717 77.7138 69.1729 80.5043 69.1729 83.8676V129.07C69.1729 132.432 72.0717 135.222 75.5888 135.222C79.1059 135.222 82.0048 132.432 82.0048 129.07V101.07L104.723 132.525C104.723 132.592 104.723 132.685 104.818 132.777C106.102 134.332 107.908 135.248 109.952 135.248C113.469 135.248 116.296 132.457 116.296 129.094V64.3306L123.735 71.4906C126.207 73.8698 130.198 73.8698 132.67 71.4906C135.142 69.1114 135.142 65.245 132.67 62.8671Z" fill="white"/>
<path d="M77.7951 155.489V164.937C77.7951 166.241 76.7018 167.292 75.348 167.292C73.9927 167.292 72.9009 166.241 72.9009 164.937V156.817C72.9009 154.575 72.3781 151.761 69.2173 151.761C66.0564 151.761 64.8689 154.529 64.8689 156.954V164.914C64.8689 166.218 63.7758 167.271 62.4219 167.271C61.0666 167.271 59.9747 166.218 59.9747 164.914V155.857C59.9747 153.523 58.8338 151.761 56.3388 151.761C53.3923 151.761 52.037 154.369 52.037 156.885V164.937C52.037 166.241 50.9439 167.292 49.59 167.292C48.2347 167.292 47.1428 166.241 47.1428 164.937V150.639C47.1428 149.404 48.1882 148.398 49.4712 148.398C50.7542 148.398 51.7996 149.404 51.7996 150.639V151.439H51.8706C52.7262 149.587 54.8172 147.848 57.978 147.848C61.1389 147.848 63.0155 149.311 64.1087 151.439C65.4162 149.152 67.6258 147.848 70.5725 147.848C75.6809 147.848 77.7964 151.645 77.7964 155.488L77.7951 155.489Z" fill="white"/>
<path d="M93.0753 147.849C99.0163 147.849 103.769 151.829 103.769 157.776C103.769 163.724 99.0163 167.864 93.0753 167.864C87.1343 167.864 82.3821 163.724 82.3821 157.776C82.3821 151.829 87.1343 147.849 93.0753 147.849ZM93.0753 163.93C96.9732 163.93 98.7789 160.727 98.7789 157.776C98.7789 154.825 96.9732 151.715 93.0753 151.715C89.1775 151.715 87.3719 154.825 87.3719 157.776C87.3719 160.727 89.1775 163.93 93.0753 163.93Z" fill="white"/>
<path d="M110.615 148.397H113.181V151.44H113.252C114.108 149.541 116.436 147.849 119.36 147.849C124.47 147.849 126.607 151.623 126.607 155.489V167.315H121.689V156.839C121.689 154.596 121.167 151.783 118.006 151.783C114.844 151.783 113.419 154.39 113.419 156.906V167.314H108.5V150.409C108.5 149.31 109.45 148.396 110.615 148.396V148.397Z" fill="white"/>
<path d="M149.8 159.378H136.113C136.327 162.054 138.845 164.023 141.722 164.023C143.479 164.023 144.812 163.542 145.832 162.719C146.569 162.124 147.663 162.148 148.422 162.742C149.445 163.542 149.492 165.074 148.446 165.875C146.688 167.225 144.477 167.887 141.744 167.887C135.685 167.887 131.17 164.136 131.17 158.006C131.17 151.875 135.636 147.872 141.578 147.872C147.067 147.872 151.084 151.303 151.084 158.119C151.084 158.806 150.514 159.378 149.8 159.378ZM146.188 155.97C146.188 153.523 144.762 151.395 141.555 151.395C138.656 151.395 136.304 153.318 136.113 155.97H146.19H146.188Z" fill="white"/>
<path d="M156.647 148.399C157.668 148.399 158.595 149.017 158.951 149.933L163.822 162.17H163.893L168.218 149.954C168.551 149.04 169.43 148.422 170.452 148.422C172.116 148.422 173.232 150.023 172.639 151.51L164.606 171.389C163.205 174.82 161.494 176.787 157.146 176.787H156.742C155.578 176.741 154.674 175.781 154.793 174.682L154.982 172.692H156.861C158.951 172.692 159.521 171.708 160.354 169.741L161.329 167.34L154.39 151.717C153.678 150.16 154.864 148.399 156.648 148.399H156.647Z" fill="white"/>
</g>
<rect x="1" y="1" width="218" height="218" rx="43" stroke="url(#paint3_linear_8960_14686)" stroke-width="2"/>
<defs>
<linearGradient id="paint0_linear_8960_14686" x1="15.4653" y1="-4.75166" x2="272.304" y2="276.753" gradientUnits="userSpaceOnUse">
<stop stop-color="white" stop-opacity="0.6"/>
<stop offset="0.5" stop-color="white" stop-opacity="0"/>
<stop offset="1" stop-color="white" stop-opacity="0.6"/>
</linearGradient>
<linearGradient id="paint1_linear_8960_14686" x1="47.6582" y1="-10.4164" x2="217.163" y2="243.373" gradientUnits="userSpaceOnUse">
<stop stop-color="white" stop-opacity="0.6"/>
<stop offset="0.5" stop-color="white" stop-opacity="0"/>
<stop offset="1" stop-color="white" stop-opacity="0.6"/>
</linearGradient>
<linearGradient id="paint2_linear_8960_14686" x1="40.9271" y1="38.1528" x2="267.718" y2="298.636" gradientUnits="userSpaceOnUse">
<stop stop-color="#1E1E1E"/>
<stop offset="1" stop-color="#0D0D0D"/>
</linearGradient>
<linearGradient id="paint3_linear_8960_14686" x1="1.07139e-06" y1="-5.5" x2="211" y2="215" gradientUnits="userSpaceOnUse">
<stop stop-color="white" stop-opacity="0.6"/>
<stop offset="0.5" stop-color="white" stop-opacity="0"/>
<stop offset="1" stop-color="white" stop-opacity="0.6"/>
</linearGradient>
<clipPath id="clip0_8960_14686">
<rect width="220" height="220" rx="44" fill="white"/>
</clipPath>
</defs>
</svg>
