<svg width="298" height="272" viewBox="0 0 298 272" fill="none" xmlns="http://www.w3.org/2000/svg">
<path opacity="0.4" fill-rule="evenodd" clip-rule="evenodd" d="M90.0348 2.64066C66.1034 -1.57908 43.2825 14.4003 39.0627 38.3317L16.1411 168.326C11.9214 192.258 27.9008 215.079 51.8322 219.298L66.756 221.93C67.4892 222.242 68.2349 222.537 68.9928 222.813L193.032 267.959C215.867 276.271 241.116 264.497 249.428 241.662L294.574 117.622C302.885 94.7873 291.112 69.5382 268.277 61.2269L254.536 56.2257C249.894 40.8273 236.949 28.5457 220.029 25.5622L90.0348 2.64066Z" fill="#007BB0"/>
<path fill-rule="evenodd" clip-rule="evenodd" d="M67.3291 220L67.5401 220.09C68.2403 220.388 68.9527 220.67 69.6768 220.933L193.716 266.08C215.513 274.013 239.615 262.775 247.548 240.978L292.695 116.938C300.628 95.1412 289.39 71.0398 267.593 63.1063L252.91 57.7623L252.621 56.8029C248.189 42.0992 235.83 30.3792 219.682 27.5318L89.6875 4.61028C66.8439 0.582338 45.0603 15.8354 41.0323 38.679L18.1108 168.674C14.0828 191.517 29.3359 213.301 52.1795 217.329L67.3291 220ZM39.0627 38.3317C43.2824 14.4003 66.1034 -1.57908 90.0348 2.64066L220.029 25.5622C236.949 28.5457 249.894 40.8273 254.536 56.2257L268.277 61.2269C291.112 69.5382 302.885 94.7873 294.574 117.622L249.428 241.662C241.116 264.497 215.867 276.271 193.032 267.959L68.9928 222.813C68.2349 222.537 67.4892 222.242 66.756 221.93L51.8322 219.298C27.9008 215.079 11.9214 192.258 16.1411 168.326L39.0627 38.3317Z" fill="url(#paint0_linear_8960_14686)"/>
<path opacity="0.5" d="M39.0627 38.3317C43.2825 14.4003 66.1034 -1.57908 90.0348 2.64066L220.029 25.5622C243.961 29.782 259.94 52.6029 255.72 76.5343L232.799 206.529C228.579 230.46 205.758 246.44 181.827 242.22L51.8322 219.298C27.9008 215.079 11.9214 192.258 16.1411 168.326L39.0627 38.3317Z" fill="#007BB0"/>
<path fill-rule="evenodd" clip-rule="evenodd" d="M219.682 27.5318L89.6875 4.61028C66.8439 0.582339 45.0603 15.8354 41.0323 38.679L18.1108 168.674C14.0828 191.517 29.3359 213.301 52.1795 217.329L182.174 240.25C205.018 244.278 226.801 229.025 230.829 206.182L253.751 76.187C257.779 53.3434 242.526 31.5598 219.682 27.5318ZM90.0348 2.64066C66.1034 -1.57908 43.2824 14.4003 39.0627 38.3317L16.1411 168.326C11.9214 192.258 27.9008 215.079 51.8322 219.298L181.827 242.22C205.758 246.44 228.579 230.46 232.799 206.529L255.72 76.5343C259.94 52.6029 243.961 29.782 220.029 25.5622L90.0348 2.64066Z" fill="url(#paint1_linear_8960_14686)"/>
<g clip-path="url(#clip0_8960_14686)">
<rect width="220" height="220" fill="url(#paint2_radial_8960_14686)"/>
<path d="M140.779 100.594C141.365 100.942 141.78 101.329 141.78 101.329C141.858 101.397 141.935 101.466 142.017 101.531C147.443 105.893 156.4 118.079 158.18 125.027C165.124 152.119 121.926 150.182 107.243 148.342C101.883 147.668 82.6838 144.372 79.1238 141.136C74.7771 137.183 82.6591 136.169 85.325 136.436C92.3096 137.136 99.5361 139.392 106.902 139.792C113.71 140.165 129.513 140.139 130.62 130.376C131.456 123.011 127.203 118.026 123.684 112.32L140.414 100.869L140.779 100.594ZM116.327 39.4243C134.856 38.4532 171.694 41.852 154.772 71.3726C141.135 95.1697 104.585 115.112 80.3376 124.342C76.6261 125.756 68.7266 129.533 65.864 125.021C62.932 120.397 70.0887 116.341 73.0828 114.541C83.0693 108.534 93.5148 103.429 102.788 96.1069C103.235 95.7545 104.827 94.7054 104.724 94.1938C104.415 92.6765 84.6444 80.5344 81.9207 78.9058C77.8972 76.4951 68.4522 72.258 65.9998 68.6655C63.3543 64.7895 65.4132 61.4898 69.6414 61.146C73.9397 60.8022 85.9569 66.3927 90.4558 68.3735C95.1845 70.4577 99.9256 72.709 104.552 75.1196C104.552 75.1196 113.234 79.6362 117.926 82.6099C122.199 78.0895 128.052 71.3468 129.996 65.2104C136.685 44.0863 104.286 48.8817 93.864 50.4458C90.2426 50.9872 80.9985 54.0464 78.3982 50.6821C76.1181 47.7346 82.4531 45.7623 84.2253 45.1948C93.884 42.1095 106.246 39.9529 116.327 39.4243Z" fill="black"/>
<path d="M138.816 96.666C139.402 97.014 139.817 97.4004 139.817 97.4004C139.894 97.4691 139.972 97.5382 140.054 97.6025C145.48 101.964 154.437 114.151 156.217 121.099C163.16 148.191 119.962 146.253 105.28 144.414C99.9193 143.739 80.7204 140.444 77.1604 137.208C72.8137 133.255 80.6957 132.241 83.3616 132.508C90.3462 133.208 97.5727 135.464 104.939 135.863C111.747 136.237 127.549 136.211 128.656 126.448C129.493 119.083 125.24 114.098 121.721 108.392L138.45 96.9404L138.816 96.666ZM114.364 35.4961C132.893 34.525 169.731 37.9237 152.809 67.4443C139.172 91.2415 102.621 111.184 78.3743 120.414C74.6628 121.828 66.7632 125.605 63.9006 121.093C60.9686 116.469 68.1253 112.413 71.1194 110.612C81.1059 104.605 91.5515 99.5005 100.824 92.1787C101.271 91.8263 102.863 90.7771 102.761 90.2656C102.451 88.7483 82.681 76.6062 79.9573 74.9775C75.9338 72.5669 66.4888 68.3297 64.0364 64.7373C61.3909 60.8612 63.4498 57.5616 67.678 57.2178C71.9763 56.874 83.9935 62.4644 88.4924 64.4453C93.2211 66.5295 97.9622 68.7808 102.588 71.1914C102.588 71.1914 111.27 75.708 115.962 78.6816C120.236 74.1612 126.089 67.4185 128.032 61.2822C134.721 40.1581 102.322 44.9535 91.9006 46.5176C88.2792 47.0589 79.0351 50.1182 76.4348 46.7539C74.1547 43.8064 80.4897 41.8341 82.262 41.2666C91.9206 38.1813 104.282 36.0246 114.364 35.4961Z" fill="white"/>
<path d="M92.0974 159.63C94.1484 159.63 95.9425 159.989 97.4744 160.707C99.0061 161.424 100.215 162.495 101.093 163.921C101.97 165.347 102.445 167.102 102.51 169.187C102.554 170.182 102.581 171.187 102.581 172.191C102.581 173.195 102.558 174.2 102.51 175.196C102.445 177.303 101.974 179.061 101.11 180.46C100.242 181.864 99.0411 182.909 97.5095 183.604C95.9777 184.294 94.1703 184.645 92.0974 184.645C90.0242 184.645 88.2171 184.299 86.6853 183.604C85.1537 182.909 83.9583 181.859 83.1033 180.46C82.2478 179.061 81.7717 177.304 81.6843 175.196C81.6624 174.2 81.6492 173.195 81.6492 172.191C81.6492 171.187 81.6624 170.182 81.6843 169.187C81.7761 167.102 82.2516 165.347 83.1199 163.921C83.9885 162.495 85.1935 161.424 86.738 160.707C88.283 159.989 90.0681 159.63 92.0974 159.63ZM173.966 159.614C175.659 159.614 177.156 159.829 178.466 160.255C179.775 160.686 180.87 161.26 181.76 161.977C182.651 162.695 183.332 163.484 183.807 164.34C184.279 165.197 184.528 166.044 184.55 166.878C184.55 167.085 184.475 167.26 184.331 167.399C184.187 167.538 184.008 167.605 183.807 167.605H178.872C178.623 167.605 178.435 167.565 178.313 167.484C178.191 167.404 178.082 167.282 177.99 167.121C177.833 166.775 177.601 166.408 177.296 166.027C176.99 165.646 176.576 165.314 176.044 165.036C175.516 164.757 174.822 164.619 173.962 164.619C172.7 164.619 171.697 164.964 170.95 165.659C170.204 166.354 169.803 167.467 169.733 168.996C169.663 170.987 169.663 173.004 169.733 175.041C169.799 176.664 170.217 177.835 170.985 178.552C171.749 179.27 172.779 179.628 174.062 179.628C174.896 179.628 175.646 179.48 176.309 179.175C176.972 178.875 177.497 178.404 177.881 177.767C178.265 177.13 178.457 176.314 178.457 175.319V174.66H175.275C175.027 174.66 174.826 174.574 174.669 174.399C174.512 174.224 174.432 174.014 174.432 173.758V171.189C174.432 170.933 174.512 170.718 174.669 170.547C174.826 170.377 175.031 170.287 175.275 170.287H183.799C184.047 170.287 184.248 170.372 184.405 170.547C184.562 170.722 184.641 170.938 184.641 171.189V175.148C184.641 177.139 184.2 178.844 183.323 180.256C182.446 181.669 181.198 182.754 179.588 183.507C177.99 184.256 176.113 184.633 173.97 184.633C171.828 184.633 169.986 184.269 168.441 183.539C166.896 182.808 165.7 181.745 164.858 180.341C164.011 178.942 163.544 177.229 163.453 175.215C163.431 174.22 163.418 173.161 163.418 172.036C163.418 170.915 163.431 169.843 163.453 168.821C163.544 166.852 164.016 165.183 164.871 163.816C165.726 162.448 166.935 161.407 168.489 160.69C170.042 159.972 171.871 159.614 173.966 159.614ZM46.5125 159.965C48.45 159.965 50.0392 160.244 51.283 160.8C52.5221 161.356 53.4431 162.15 54.0408 163.181C54.6389 164.212 54.9353 165.433 54.9353 166.85C54.9353 167.684 54.7829 168.419 54.4773 169.056C54.1717 169.693 53.801 170.222 53.3601 170.639C52.9192 171.056 52.5086 171.357 52.1248 171.541C52.9802 171.958 53.7438 172.64 54.407 173.59C55.0705 174.541 55.407 175.653 55.407 176.926C55.407 178.456 55.0749 179.77 54.407 180.869C53.7438 181.967 52.7707 182.815 51.5007 183.407C50.2263 183.998 48.6639 184.294 46.8181 184.294H36.2C35.9512 184.294 35.7497 184.21 35.5925 184.035C35.4354 183.86 35.3572 183.658 35.3572 183.424V160.835C35.3573 160.58 35.4357 160.374 35.5925 160.208C35.7497 160.047 35.9556 159.965 36.2 159.965H46.5125ZM69.2 159.965C72.1284 159.965 74.4284 160.657 76.1003 162.034C77.7673 163.41 78.6013 165.365 78.6013 167.89C78.6013 169.536 78.2166 170.927 77.4529 172.061C76.6848 173.195 75.6721 174.052 74.4109 174.63L79.0457 183.178C79.111 183.317 79.1462 183.442 79.1462 183.559C79.1462 183.743 79.0722 183.913 78.9285 184.061C78.78 184.214 78.618 184.286 78.4392 184.286H73.9392C73.5121 184.286 73.1936 184.178 72.9929 183.954C72.7923 183.734 72.6433 183.532 72.5515 183.344L68.698 175.698H65.2507V183.412C65.2506 183.644 65.1676 183.846 64.9978 184.021C64.8274 184.196 64.6174 184.281 64.3728 184.281H59.9998V184.294C59.7514 184.294 59.55 184.21 59.3933 184.035C59.2361 183.86 59.158 183.658 59.158 183.424V160.835C59.158 160.58 59.2364 160.374 59.3933 160.208C59.55 160.047 59.7557 159.965 59.9998 159.965H69.2ZM111.613 159.965C111.861 159.965 112.063 160.047 112.219 160.208C112.376 160.37 112.455 160.58 112.455 160.835V168.549L118.714 160.625C118.805 160.486 118.953 160.342 119.172 160.19C119.386 160.037 119.674 159.965 120.036 159.965H124.906C125.111 159.965 125.277 160.042 125.412 160.19C125.547 160.342 125.613 160.508 125.613 160.692C125.613 160.853 125.578 160.992 125.512 161.109L117.395 171.603L126.119 183.142C126.211 183.236 126.255 183.375 126.255 183.559C126.255 183.743 126.184 183.913 126.053 184.061C125.918 184.214 125.748 184.286 125.548 184.286H120.508C120.102 184.286 119.792 184.191 119.578 184.007C119.364 183.824 119.224 183.685 119.154 183.59L112.46 175.007V183.416C112.46 183.648 112.381 183.851 112.223 184.026C112.066 184.201 111.861 184.286 111.617 184.286H107.353V184.294C107.104 184.294 106.904 184.21 106.747 184.035C106.59 183.86 106.51 183.658 106.51 183.424V160.835C106.511 160.58 106.59 160.374 106.747 160.208C106.904 160.047 107.109 159.965 107.353 159.965H111.613ZM134.297 159.965C134.545 159.965 134.755 160.047 134.921 160.208C135.091 160.37 135.174 160.58 135.174 160.835V183.424C135.174 183.658 135.091 183.86 134.921 184.035C134.75 184.21 134.541 184.294 134.297 184.294H129.766C129.518 184.294 129.317 184.21 129.16 184.035C129.003 183.86 128.925 183.658 128.925 183.424V160.835C128.925 160.58 129.003 160.374 129.16 160.208C129.317 160.047 129.522 159.965 129.766 159.965H134.297ZM144.306 159.965C144.691 159.965 144.966 160.051 145.136 160.226C145.306 160.401 145.411 160.536 145.459 160.625L153.712 173.971V160.835C153.712 160.58 153.791 160.374 153.947 160.208C154.104 160.047 154.31 159.965 154.554 159.965H158.613C158.862 159.965 159.062 160.047 159.219 160.208C159.377 160.37 159.456 160.58 159.456 160.835V183.388C159.456 183.644 159.377 183.859 159.219 184.03C159.062 184.2 158.857 184.29 158.613 184.29H154.995C154.633 184.29 154.371 184.196 154.201 184.012C154.031 183.829 153.926 183.699 153.878 183.631L145.625 170.774V183.424C145.625 183.658 145.547 183.86 145.389 184.035C145.232 184.21 145.027 184.294 144.783 184.294H140.723C140.475 184.294 140.274 184.21 140.117 184.035C139.96 183.86 139.882 183.658 139.882 183.424V160.835C139.882 160.58 139.96 160.374 140.117 160.208C140.274 160.047 140.479 159.965 140.723 159.965H144.306ZM41.4412 179.779H46.1414C47.1103 179.779 47.843 179.487 48.3406 178.909C48.8382 178.33 49.0876 177.671 49.0876 176.926C49.0876 176.115 48.8341 175.433 48.3279 174.877C47.8215 174.321 47.0925 174.042 46.1453 174.042H41.4412V179.779ZM92.0974 164.63C91.3294 164.63 90.6442 164.792 90.033 165.115C89.4265 165.437 88.9377 165.945 88.5798 166.626C88.2176 167.308 88.0169 168.196 87.9734 169.286C87.9514 170.258 87.9382 171.196 87.9382 172.101C87.9382 173.007 87.9514 173.967 87.9734 174.985C88.0432 176.608 88.4538 177.788 89.2087 178.528C89.9636 179.267 90.9236 179.64 92.0974 179.64C93.2932 179.64 94.2663 179.267 95.0212 178.528C95.7762 177.788 96.1775 176.604 96.2214 174.985C96.2649 173.967 96.2869 173.003 96.2869 172.101C96.2869 171.2 96.2649 170.258 96.2214 169.286C96.1775 168.196 95.9768 167.312 95.6277 166.626C95.2785 165.945 94.7986 165.437 94.1921 165.115C93.5853 164.792 92.8826 164.63 92.0974 164.63ZM65.2419 170.778H69.1306C70.191 170.778 70.9856 170.513 71.5134 169.98C72.0416 169.446 72.3073 168.729 72.3074 167.828C72.3074 166.922 72.0543 166.195 71.5486 165.639C71.0423 165.083 70.2349 164.805 69.1306 164.805H65.2419V170.778ZM41.4412 169.63H45.8357C46.761 169.63 47.4553 169.384 47.9177 168.881C48.3802 168.384 48.6111 167.765 48.6111 167.02C48.6111 166.28 48.3802 165.67 47.9177 165.195C47.4553 164.719 46.761 164.482 45.8357 164.482H41.4412V169.63Z" fill="white"/>
</g>
<rect x="1" y="1" width="218" height="218" rx="43" stroke="url(#paint3_linear_8960_14686)" stroke-width="2"/>
<defs>
<linearGradient id="paint0_linear_8960_14686" x1="15.4653" y1="-4.75166" x2="272.304" y2="276.753" gradientUnits="userSpaceOnUse">
<stop stop-color="white" stop-opacity="0.6"/>
<stop offset="0.5" stop-color="white" stop-opacity="0"/>
<stop offset="1" stop-color="white" stop-opacity="0.6"/>
</linearGradient>
<linearGradient id="paint1_linear_8960_14686" x1="47.6582" y1="-10.4164" x2="217.163" y2="243.373" gradientUnits="userSpaceOnUse">
<stop stop-color="white" stop-opacity="0.6"/>
<stop offset="0.5" stop-color="white" stop-opacity="0"/>
<stop offset="1" stop-color="white" stop-opacity="0.6"/>
</linearGradient>
<radialGradient id="paint2_radial_8960_14686" cx="0" cy="0" r="1" gradientUnits="userSpaceOnUse" gradientTransform="translate(64.746 44.2406) scale(181.677 181.723)">
<stop stop-color="#85ECBF"/>
<stop offset="0.16" stop-color="#6FD9BC"/>
<stop offset="0.48" stop-color="#39ABB6"/>
<stop offset="0.78" stop-color="#007BB0"/>
</radialGradient>
<linearGradient id="paint3_linear_8960_14686" x1="1.07139e-06" y1="-5.5" x2="211" y2="215" gradientUnits="userSpaceOnUse">
<stop stop-color="white" stop-opacity="0.6"/>
<stop offset="0.5" stop-color="white" stop-opacity="0"/>
<stop offset="1" stop-color="white" stop-opacity="0.6"/>
</linearGradient>
<clipPath id="clip0_8960_14686">
<rect width="220" height="220" rx="44" fill="white"/>
</clipPath>
</defs>
</svg>
