<svg width="298" height="272" viewBox="0 0 298 272" fill="none" xmlns="http://www.w3.org/2000/svg">
<path opacity="0.4" fill-rule="evenodd" clip-rule="evenodd" d="M90.0348 2.64066C66.1034 -1.57908 43.2825 14.4003 39.0627 38.3317L16.1411 168.326C11.9214 192.258 27.9008 215.079 51.8322 219.298L66.756 221.93C67.4892 222.242 68.2349 222.537 68.9928 222.813L193.032 267.959C215.867 276.271 241.116 264.497 249.428 241.662L294.574 117.622C302.885 94.7873 291.112 69.5382 268.277 61.2269L254.536 56.2257C249.894 40.8273 236.949 28.5457 220.029 25.5622L90.0348 2.64066Z" fill="#ED1C24"/>
<path fill-rule="evenodd" clip-rule="evenodd" d="M67.3291 220L67.5401 220.09C68.2403 220.388 68.9527 220.67 69.6768 220.933L193.716 266.08C215.513 274.013 239.615 262.775 247.548 240.978L292.695 116.938C300.628 95.1412 289.39 71.0398 267.593 63.1063L252.91 57.7623L252.621 56.8029C248.189 42.0992 235.83 30.3792 219.682 27.5318L89.6875 4.61028C66.8439 0.582338 45.0603 15.8354 41.0323 38.679L18.1108 168.674C14.0828 191.517 29.3359 213.301 52.1795 217.329L67.3291 220ZM39.0627 38.3317C43.2824 14.4003 66.1034 -1.57908 90.0348 2.64066L220.029 25.5622C236.949 28.5457 249.894 40.8273 254.536 56.2257L268.277 61.2269C291.112 69.5382 302.885 94.7873 294.574 117.622L249.428 241.662C241.116 264.497 215.867 276.271 193.032 267.959L68.9928 222.813C68.2349 222.537 67.4892 222.242 66.756 221.93L51.8322 219.298C27.9008 215.079 11.9214 192.258 16.1411 168.326L39.0627 38.3317Z" fill="url(#paint0_linear_8960_14686)"/>
<path opacity="0.5" d="M39.0627 38.3317C43.2825 14.4003 66.1034 -1.57908 90.0348 2.64066L220.029 25.5622C243.961 29.782 259.94 52.6029 255.72 76.5343L232.799 206.529C228.579 230.46 205.758 246.44 181.827 242.22L51.8322 219.298C27.9008 215.079 11.9214 192.258 16.1411 168.326L39.0627 38.3317Z" fill="#ED1C24"/>
<path fill-rule="evenodd" clip-rule="evenodd" d="M219.682 27.5318L89.6875 4.61028C66.8439 0.582339 45.0603 15.8354 41.0323 38.679L18.1108 168.674C14.0828 191.517 29.3359 213.301 52.1795 217.329L182.174 240.25C205.018 244.278 226.801 229.025 230.829 206.182L253.751 76.187C257.779 53.3434 242.526 31.5598 219.682 27.5318ZM90.0348 2.64066C66.1034 -1.57908 43.2824 14.4003 39.0627 38.3317L16.1411 168.326C11.9214 192.258 27.9008 215.079 51.8322 219.298L181.827 242.22C205.758 246.44 228.579 230.46 232.799 206.529L255.72 76.5343C259.94 52.6029 243.961 29.782 220.029 25.5622L90.0348 2.64066Z" fill="url(#paint1_linear_8960_14686)"/>
<g clip-path="url(#clip0_8960_14686)">
<rect width="220" height="220" fill="#ED1C24"/>
<path d="M44.1465 74.6452C44.1465 63.7929 54.5049 55 67.2968 55C80.0886 55 90.4467 63.7929 90.4467 74.6452C90.4467 85.4979 80.0886 94.2908 67.2968 94.2908C54.5203 94.2908 44.1465 85.4979 44.1465 74.6452Z" fill="#003974"/>
<path d="M64.4886 61.3024L69.8708 59.5503L69.8861 88.2344L64.4729 90.0325L64.4886 61.3024Z" fill="#ED1C24"/>
<path d="M67.6864 79.1954C65.3466 81.978 63.0845 84.8215 58.857 84.8215C52.8824 84.8215 50.0432 79.1188 50.0432 74.3534C50.0432 69.7727 52.2581 64.3462 58.0771 64.3462C60.6044 64.3462 63.0377 65.8681 64.4729 67.482V71.3713C63.2562 70.5718 60.5576 69.7727 58.7792 69.7417C55.082 69.6804 51.837 71.2636 51.8837 74.8606C51.9309 77.3356 54.411 79.0265 56.8758 79.0265C60.6665 79.0265 62.96 75.6137 64.8787 73.0162C65.409 72.3397 66.9223 70.3412 67.1561 70.034C69.2932 67.0978 71.758 64.4079 75.9855 64.4079C80.9619 64.4079 83.77 68.3738 84.5655 72.4473H82.3192C81.4144 71.1253 79.6827 70.3105 77.9514 70.3105C74.0358 70.3105 71.6959 73.8616 69.7458 76.4902C69.7615 76.4902 68.2325 78.5346 67.6864 79.1954ZM84.7062 76.6285C84.2068 80.7327 81.8666 84.8832 76.7811 84.8832C73.8016 84.8832 71.4928 82.8847 69.8707 80.4254V77.5815C71.8829 78.5653 73.7706 79.626 76.048 79.6566C78.8561 79.703 81.3987 78.6269 82.4594 76.6285H84.7062Z" fill="white"/>
<path d="M119.369 81.6086C116.904 81.6086 115.89 79.5794 115.89 77.3354C115.89 75.0447 116.904 73.0313 119.369 73.0313C121.834 73.0313 122.848 75.0604 122.848 77.3354C122.848 79.5948 121.834 81.6086 119.369 81.6086ZM119.369 85.3132C124.47 85.3132 128.37 82.3774 128.37 77.3354C128.37 72.2625 124.485 69.3267 119.369 69.3267C114.252 69.3267 110.368 72.2625 110.368 77.3354C110.368 82.3774 114.268 85.3132 119.369 85.3132Z" fill="white"/>
<path d="M128.073 73.3698H131.131V79.58C131.131 83.2077 132.285 85.2981 137.074 85.2981C138.416 85.2981 139.415 85.1291 140.429 85.0062L140.257 81.5781C139.727 81.6704 139.165 81.7781 138.619 81.7781C136.918 81.7781 136.482 80.8403 136.482 78.9959V73.3698H140.226V69.6804H136.482V64.3926L131.225 66.237V69.6651H128.073V73.3698Z" fill="white"/>
<path d="M159.679 84.9599H165.014V77.3966H165.077L169.351 84.9599H175.84L170.006 76.6898L175.388 69.6801H169.538L165.077 76.1056H165.014V64.4229L159.679 66.252V84.9599Z" fill="white"/>
<path d="M95.8755 84.9599H101.21V77.3966H101.273L105.547 84.9599H112.021L106.203 76.6898L111.584 69.6801H105.735L101.273 76.1056H101.21V64.4229L95.8755 66.1601V84.9599Z" fill="white"/>
<path d="M146.653 80.1332C146.653 78.6419 148.104 78.0888 149.929 78.0888C150.74 78.0888 151.52 78.1501 152.207 78.1811C152.207 79.9949 150.912 81.8241 148.868 81.8241C147.62 81.8241 146.653 81.2092 146.653 80.1332ZM157.573 85.0215C157.339 83.8072 157.276 82.5925 157.276 81.3782V75.6291C157.276 70.9101 153.813 69.2192 149.82 69.2192C147.511 69.2192 145.483 69.5418 143.564 70.3106L143.658 73.9382C145.155 73.1081 146.903 72.7852 148.65 72.7852C150.6 72.7852 152.191 73.3541 152.222 75.4602C151.536 75.3372 150.568 75.2602 149.695 75.2602C146.809 75.2602 141.614 75.8291 141.614 80.5481C141.614 83.8991 144.375 85.4211 147.48 85.4211C149.71 85.4211 151.208 84.5603 152.44 82.6388H152.503C152.503 83.4379 152.596 84.2374 152.628 85.0675H157.573V85.0215Z" fill="white"/>
<path d="M128.744 160.988C128.244 161.157 127.667 161.357 127.012 161.602C124.204 162.663 121.474 163.493 118.791 164.093C116.108 164.708 112.8 165 108.838 165C97.9652 165 89.8064 162.018 84.3775 156.053C78.949 150.089 76.219 141.865 76.219 131.397C76.219 126.847 76.921 122.65 78.3247 118.792C79.7288 114.933 81.7257 111.613 84.315 108.815C86.9047 106.018 90.0401 103.851 93.7062 102.298C97.3724 100.761 101.381 99.9766 105.749 99.9766C110.851 99.9766 115.203 100.853 118.791 102.59C122.379 104.342 125.249 106.771 127.433 109.891C129.617 113.012 131.177 116.686 132.128 120.913C133.08 125.14 133.548 129.844 133.548 135.04H88.574C88.574 138.037 89.1354 140.82 90.2432 143.387C91.3507 145.938 92.8793 148.152 94.8137 150.028C96.7481 151.888 98.9788 153.317 101.491 154.286C104.002 155.254 106.623 155.746 109.337 155.746C111.147 155.746 113.05 155.546 115.016 155.131C116.997 154.731 118.884 154.193 120.694 153.548C122.503 152.902 124.11 152.21 125.514 151.473C126.918 150.734 127.979 150.089 128.728 149.52V160.988H128.744ZM121.209 126.524C121.209 121.574 119.805 117.454 117.012 114.165C114.204 110.875 110.383 109.23 105.515 109.23C102.801 109.23 100.414 109.723 98.3549 110.691C96.296 111.659 94.5953 112.981 93.2226 114.642C91.8653 116.302 90.8203 118.177 90.0715 120.237C89.3227 122.312 88.8391 124.402 88.5897 126.509H121.209V126.524Z" fill="white"/>
<path d="M136.2 119.468C137.729 115.487 139.913 112.044 142.752 109.123C145.591 106.202 149.008 103.942 153.017 102.359C157.01 100.776 161.362 99.9766 166.058 99.9766C170.754 99.9766 175.075 100.776 179.037 102.359C182.984 103.942 186.385 106.187 189.224 109.123C192.063 112.044 194.247 115.502 195.776 119.468C197.305 123.449 198.069 127.785 198.069 132.504C198.069 136.885 197.289 141.066 195.729 145.047C194.169 149.028 191.954 152.518 189.115 155.515C186.276 158.513 182.875 160.849 178.912 162.51C174.966 164.17 170.676 165 166.058 165C161.441 165 157.166 164.17 153.204 162.51C149.257 160.849 145.81 158.497 142.892 155.454C139.96 152.41 137.744 148.921 136.216 144.985C134.687 141.05 133.923 136.885 133.923 132.504C133.907 127.785 134.671 123.449 136.2 119.468ZM147.447 140.897C148.227 143.663 149.444 146.154 151.098 148.383C152.736 150.612 154.826 152.395 157.338 153.748C159.849 155.085 162.751 155.761 166.058 155.761C169.35 155.761 172.236 155.085 174.7 153.748C177.165 152.41 179.224 150.627 180.878 148.383C182.516 146.154 183.733 143.663 184.528 140.897C185.308 138.13 185.698 135.332 185.698 132.488C185.698 129.491 185.246 126.601 184.341 123.849C183.436 121.082 182.141 118.592 180.457 116.363C178.772 114.134 176.682 112.382 174.217 111.121C171.736 109.861 169.022 109.23 166.058 109.23C163 109.23 160.27 109.861 157.837 111.121C155.403 112.382 153.329 114.134 151.597 116.363C149.866 118.592 148.555 121.098 147.65 123.849C146.745 126.616 146.293 129.491 146.293 132.488C146.262 135.332 146.652 138.13 147.447 140.897Z" fill="white"/>
<path d="M70.2598 106.955C66.391 102.375 60.4631 100.069 52.4602 100.069C51.2279 100.084 48.5136 99.8691 45.5338 100.069C37.5468 100.069 31.6189 102.359 27.7345 106.955C23.8658 111.536 21.9314 118.131 21.9314 126.739V164.969H33.5533V131.489C33.5533 124.018 34.5361 118.546 36.5172 115.057C38.4984 111.567 41.9458 110.768 46.8911 110.445C47.5621 110.445 50.4166 110.445 51.0876 110.445C56.0325 110.768 59.4959 111.567 61.4614 115.057C63.4426 118.546 64.4255 124.034 64.4255 131.489V164.969H76.0474V126.739C76.0627 118.131 74.1283 111.536 70.2598 106.955Z" fill="white"/>
</g>
<rect x="1" y="1" width="218" height="218" rx="43" stroke="url(#paint2_linear_8960_14686)" stroke-width="2"/>
<defs>
<linearGradient id="paint0_linear_8960_14686" x1="15.4653" y1="-4.75166" x2="272.304" y2="276.753" gradientUnits="userSpaceOnUse">
<stop stop-color="white" stop-opacity="0.6"/>
<stop offset="0.5" stop-color="white" stop-opacity="0"/>
<stop offset="1" stop-color="white" stop-opacity="0.6"/>
</linearGradient>
<linearGradient id="paint1_linear_8960_14686" x1="47.6582" y1="-10.4164" x2="217.163" y2="243.373" gradientUnits="userSpaceOnUse">
<stop stop-color="white" stop-opacity="0.6"/>
<stop offset="0.5" stop-color="white" stop-opacity="0"/>
<stop offset="1" stop-color="white" stop-opacity="0.6"/>
</linearGradient>
<linearGradient id="paint2_linear_8960_14686" x1="1.07139e-06" y1="-5.5" x2="211" y2="215" gradientUnits="userSpaceOnUse">
<stop stop-color="white" stop-opacity="0.6"/>
<stop offset="0.5" stop-color="white" stop-opacity="0"/>
<stop offset="1" stop-color="white" stop-opacity="0.6"/>
</linearGradient>
<clipPath id="clip0_8960_14686">
<rect width="220" height="220" rx="44" fill="white"/>
</clipPath>
</defs>
</svg>
