<svg width="298" height="272" viewBox="0 0 298 272" fill="none" xmlns="http://www.w3.org/2000/svg">
<path opacity="0.4" fill-rule="evenodd" clip-rule="evenodd" d="M90.0348 2.64066C66.1034 -1.57908 43.2825 14.4003 39.0627 38.3317L16.1411 168.326C11.9214 192.258 27.9008 215.079 51.8322 219.298L66.756 221.93C67.4892 222.242 68.2349 222.537 68.9928 222.813L193.032 267.959C215.867 276.271 241.116 264.497 249.428 241.662L294.574 117.622C302.885 94.7873 291.112 69.5382 268.277 61.2269L254.536 56.2257C249.894 40.8273 236.949 28.5457 220.029 25.5622L90.0348 2.64066Z" fill="#F2F2F2"/>
<path fill-rule="evenodd" clip-rule="evenodd" d="M67.3291 220L67.5401 220.09C68.2403 220.388 68.9527 220.67 69.6768 220.933L193.716 266.08C215.513 274.013 239.615 262.775 247.548 240.978L292.695 116.938C300.628 95.1412 289.39 71.0398 267.593 63.1063L252.91 57.7623L252.621 56.8029C248.189 42.0992 235.83 30.3792 219.682 27.5318L89.6875 4.61028C66.8439 0.582338 45.0603 15.8354 41.0323 38.679L18.1108 168.674C14.0828 191.517 29.3359 213.301 52.1795 217.329L67.3291 220ZM39.0627 38.3317C43.2824 14.4003 66.1034 -1.57908 90.0348 2.64066L220.029 25.5622C236.949 28.5457 249.894 40.8273 254.536 56.2257L268.277 61.2269C291.112 69.5382 302.885 94.7873 294.574 117.622L249.428 241.662C241.116 264.497 215.867 276.271 193.032 267.959L68.9928 222.813C68.2349 222.537 67.4892 222.242 66.756 221.93L51.8322 219.298C27.9008 215.079 11.9214 192.258 16.1411 168.326L39.0627 38.3317Z" fill="url(#paint0_linear_8960_14686)"/>
<path opacity="0.5" d="M39.0627 38.3317C43.2825 14.4003 66.1034 -1.57908 90.0348 2.64066L220.029 25.5622C243.961 29.782 259.94 52.6029 255.72 76.5343L232.799 206.529C228.579 230.46 205.758 246.44 181.827 242.22L51.8322 219.298C27.9008 215.079 11.9214 192.258 16.1411 168.326L39.0627 38.3317Z" fill="#F2F2F2"/>
<path fill-rule="evenodd" clip-rule="evenodd" d="M219.682 27.5318L89.6875 4.61028C66.8439 0.582339 45.0603 15.8354 41.0323 38.679L18.1108 168.674C14.0828 191.517 29.3359 213.301 52.1795 217.329L182.174 240.25C205.018 244.278 226.801 229.025 230.829 206.182L253.751 76.187C257.779 53.3434 242.526 31.5598 219.682 27.5318ZM90.0348 2.64066C66.1034 -1.57908 43.2824 14.4003 39.0627 38.3317L16.1411 168.326C11.9214 192.258 27.9008 215.079 51.8322 219.298L181.827 242.22C205.758 246.44 228.579 230.46 232.799 206.529L255.72 76.5343C259.94 52.6029 243.961 29.782 220.029 25.5622L90.0348 2.64066Z" fill="url(#paint1_linear_8960_14686)"/>
<g clip-path="url(#clip0_8960_14686)">
<rect width="220" height="220" fill="#F2F2F2"/>
<path fill-rule="evenodd" clip-rule="evenodd" d="M92.805 55.4701C92.4223 56.1157 92.4223 56.9207 92.8056 57.5653L158.604 168.326C158.971 168.943 159.632 169.321 160.347 169.321H182.413C183.99 169.321 184.964 167.591 184.156 166.23L106.492 35.4843C106.081 34.7904 105.082 34.7904 104.669 35.4843L92.805 55.4701Z" fill="#11AF4B"/>
<path fill-rule="evenodd" clip-rule="evenodd" d="M103.489 77.3936H92.1596H80.8305C80.0346 77.3936 79.5375 78.2604 79.9353 78.9543L85.6 88.8354L91.2647 98.7161C91.6624 99.41 92.6571 99.41 93.0549 98.7161L98.7196 88.8354L104.384 78.9543C104.782 78.2604 104.285 77.3936 103.489 77.3936ZM89.9615 100.309H78.6325H67.3031C66.5071 100.309 66.01 101.176 66.4081 101.87L72.0725 111.75L77.7372 121.631C78.135 122.325 79.1296 122.325 79.5274 121.631L85.1921 111.75L90.8568 101.87C91.2546 101.176 90.7574 100.309 89.9615 100.309ZM65.0157 123.585H76.3448C77.1407 123.585 77.6378 124.452 77.24 125.146L71.5753 135.026L65.911 144.908C65.5128 145.602 64.5185 145.602 64.1204 144.908L58.4561 135.026L52.7914 125.146C52.3934 124.452 52.8907 123.585 53.6866 123.585H65.0157ZM63.1761 147.479H51.8469H40.5176C39.7218 147.479 39.2246 148.346 39.6225 149.041L45.2871 158.921L50.9517 168.802C51.3496 169.496 52.3441 169.496 52.742 168.802L58.4067 158.921L64.0711 149.041C64.4692 148.346 63.972 147.479 63.1761 147.479ZM78.7221 147.479H90.0512C90.8471 147.479 91.3442 148.346 90.9464 149.041L85.2817 158.921L79.617 168.802C79.2192 169.496 78.2246 169.496 77.8268 168.802L72.1621 158.921L66.4977 149.041C66.0996 148.346 66.5968 147.479 67.3927 147.479H78.7221ZM117.285 147.479H105.956H94.6266C93.8306 147.479 93.3335 148.346 93.7313 149.041L99.396 158.921L105.061 168.802C105.458 169.496 106.453 169.496 106.851 168.802L112.516 158.921L118.18 149.041C118.578 148.346 118.081 147.479 117.285 147.479ZM133.189 147.479H144.519C145.314 147.479 145.812 148.346 145.414 149.041L139.749 158.921L134.085 168.802C133.687 169.496 132.692 169.496 132.294 168.802L126.63 158.921L120.965 149.041C120.567 148.346 121.065 147.479 121.86 147.479H133.189ZM103.848 123.585H92.5181H81.189C80.3931 123.585 79.896 124.452 80.2938 125.146L85.9585 135.026L91.6232 144.908C92.021 145.602 93.0153 145.602 93.4134 144.908L99.0777 135.026L104.742 125.146C105.141 124.452 104.643 123.585 103.848 123.585ZM119.035 123.585H130.364C131.16 123.585 131.657 124.452 131.259 125.146L125.595 135.026L119.93 144.908C119.532 145.602 118.538 145.602 118.14 144.908L112.475 135.026L106.811 125.146C106.412 124.452 106.91 123.585 107.706 123.585H119.035ZM117.643 100.309H106.314H94.9847C94.1888 100.309 93.6917 101.176 94.0898 101.87L99.7542 111.75L105.419 121.631C105.817 122.325 106.811 122.325 107.209 121.631L112.874 111.75L118.538 101.87C118.936 101.176 118.439 100.309 117.643 100.309Z" fill="#FF7300"/>
</g>
<rect x="1" y="1" width="218" height="218" rx="43" stroke="url(#paint2_linear_8960_14686)" stroke-width="2"/>
<defs>
<linearGradient id="paint0_linear_8960_14686" x1="15.4653" y1="-4.75166" x2="272.304" y2="276.753" gradientUnits="userSpaceOnUse">
<stop stop-color="white" stop-opacity="0.6"/>
<stop offset="0.5" stop-color="white" stop-opacity="0"/>
<stop offset="1" stop-color="white" stop-opacity="0.6"/>
</linearGradient>
<linearGradient id="paint1_linear_8960_14686" x1="47.6582" y1="-10.4164" x2="217.163" y2="243.373" gradientUnits="userSpaceOnUse">
<stop stop-color="white" stop-opacity="0.6"/>
<stop offset="0.5" stop-color="white" stop-opacity="0"/>
<stop offset="1" stop-color="white" stop-opacity="0.6"/>
</linearGradient>
<linearGradient id="paint2_linear_8960_14686" x1="1.07139e-06" y1="-5.5" x2="211" y2="215" gradientUnits="userSpaceOnUse">
<stop stop-color="white" stop-opacity="0.6"/>
<stop offset="0.5" stop-color="white" stop-opacity="0"/>
<stop offset="1" stop-color="white" stop-opacity="0.6"/>
</linearGradient>
<clipPath id="clip0_8960_14686">
<rect width="220" height="220" rx="44" fill="white"/>
</clipPath>
</defs>
</svg>
