<svg width="298" height="272" viewBox="0 0 298 272" fill="none" xmlns="http://www.w3.org/2000/svg">
<path opacity="0.4" fill-rule="evenodd" clip-rule="evenodd" d="M90.0348 2.64066C66.1034 -1.57908 43.2825 14.4003 39.0627 38.3317L16.1411 168.326C11.9214 192.258 27.9008 215.079 51.8322 219.298L66.756 221.93C67.4892 222.242 68.2349 222.537 68.9928 222.813L193.032 267.959C215.867 276.271 241.116 264.497 249.428 241.662L294.574 117.622C302.885 94.7873 291.112 69.5382 268.277 61.2269L254.536 56.2257C249.894 40.8273 236.949 28.5457 220.029 25.5622L90.0348 2.64066Z" fill="#34A67E"/>
<path fill-rule="evenodd" clip-rule="evenodd" d="M67.3291 220L67.5401 220.09C68.2403 220.388 68.9527 220.67 69.6768 220.933L193.716 266.08C215.513 274.013 239.615 262.775 247.548 240.978L292.695 116.938C300.628 95.1412 289.39 71.0398 267.593 63.1063L252.91 57.7623L252.621 56.8029C248.189 42.0992 235.83 30.3792 219.682 27.5318L89.6875 4.61028C66.8439 0.582338 45.0603 15.8354 41.0323 38.679L18.1108 168.674C14.0828 191.517 29.3359 213.301 52.1795 217.329L67.3291 220ZM39.0627 38.3317C43.2824 14.4003 66.1034 -1.57908 90.0348 2.64066L220.029 25.5622C236.949 28.5457 249.894 40.8273 254.536 56.2257L268.277 61.2269C291.112 69.5382 302.885 94.7873 294.574 117.622L249.428 241.662C241.116 264.497 215.867 276.271 193.032 267.959L68.9928 222.813C68.2349 222.537 67.4892 222.242 66.756 221.93L51.8322 219.298C27.9008 215.079 11.9214 192.258 16.1411 168.326L39.0627 38.3317Z" fill="url(#paint0_linear_8960_14686)"/>
<path opacity="0.5" d="M39.0627 38.3317C43.2825 14.4003 66.1034 -1.57908 90.0348 2.64066L220.029 25.5622C243.961 29.782 259.94 52.6029 255.72 76.5343L232.799 206.529C228.579 230.46 205.758 246.44 181.827 242.22L51.8322 219.298C27.9008 215.079 11.9214 192.258 16.1411 168.326L39.0627 38.3317Z" fill="#34A67E"/>
<path fill-rule="evenodd" clip-rule="evenodd" d="M219.682 27.5318L89.6875 4.61028C66.8439 0.582339 45.0603 15.8354 41.0323 38.679L18.1108 168.674C14.0828 191.517 29.3359 213.301 52.1795 217.329L182.174 240.25C205.018 244.278 226.801 229.025 230.829 206.182L253.751 76.187C257.779 53.3434 242.526 31.5598 219.682 27.5318ZM90.0348 2.64066C66.1034 -1.57908 43.2824 14.4003 39.0627 38.3317L16.1411 168.326C11.9214 192.258 27.9008 215.079 51.8322 219.298L181.827 242.22C205.758 246.44 228.579 230.46 232.799 206.529L255.72 76.5343C259.94 52.6029 243.961 29.782 220.029 25.5622L90.0348 2.64066Z" fill="url(#paint1_linear_8960_14686)"/>
<g clip-path="url(#clip0_8960_14686)">
<g clip-path="url(#clip1_8960_14686)">
<rect width="220" height="220" fill="url(#paint2_linear_8960_14686)"/>
<path d="M84.8601 119.455L71.8568 152.223L159.876 220H188.571C205.929 220 220 205.929 220 188.571V112.651L164.857 62.8569H71.8568L62.8572 89.6667L84.8601 119.455Z" fill="#17875F"/>
<path d="M172.857 77.8054H146.014V184.643C141.637 184.643 137.325 183.8 133.077 182.113C128.828 180.556 126.704 178.74 126.704 176.664V153.506C117.692 159.215 107.908 162.069 97.3509 162.069C86.7938 162.069 78.1697 159.344 71.4748 153.895C64.9095 148.317 61.6263 141.116 61.6263 132.295C61.6263 125.548 63.9436 119.516 68.5779 114.196C62.0126 111.732 56.7986 108.098 52.9362 103.298C49.0741 98.3687 47.1428 92.5296 47.1428 85.7841C47.1428 79.0378 49.8465 72.8753 55.2537 67.2964C60.7894 61.7183 68.3207 58.9287 77.8481 58.9287C84.7988 58.9287 90.1413 60.4852 93.8755 63.5991C97.7376 66.7127 99.6691 70.5398 99.6691 75.0809C99.6691 84.2917 93.7461 90.7786 81.9032 94.5408C79.9717 92.9844 78.5549 90.7786 77.6543 87.925C82.9317 84.4214 85.5715 80.7248 85.5715 76.8322C85.5715 74.6263 84.9275 72.8753 83.6401 71.5779C82.3527 70.1505 80.2934 69.437 77.4613 69.437C74.6285 69.437 71.8608 70.9944 69.1576 74.1079C66.4539 77.2215 65.1022 81.3077 65.1022 86.3678C65.1022 91.2982 66.4539 95.4488 69.1576 98.8227C71.9894 102.065 75.5299 104.336 79.778 105.634C85.4421 102.78 91.8154 100.639 98.8964 99.211C103.788 103.883 106.878 108.747 108.165 113.807C100.183 115.364 93.4244 117.829 87.8898 121.203C82.4822 124.446 79.778 128.208 79.778 132.489C79.778 136.641 81.194 140.013 84.0268 142.609C86.9876 145.204 91.1713 146.501 96.5789 146.501C102.114 146.501 107.586 144.944 112.993 141.83C118.4 138.716 122.97 134.629 126.704 129.569V77.8054H113.379C108.745 72.3561 106.428 66.5829 106.428 60.4852H166.871C170.861 65.6747 172.857 71.4483 172.857 77.8054Z" fill="white"/>
</g>
</g>
<rect x="1" y="1" width="218" height="218" rx="43" stroke="url(#paint3_linear_8960_14686)" stroke-width="2"/>
<defs>
<linearGradient id="paint0_linear_8960_14686" x1="15.4653" y1="-4.75166" x2="272.304" y2="276.753" gradientUnits="userSpaceOnUse">
<stop stop-color="white" stop-opacity="0.6"/>
<stop offset="0.5" stop-color="white" stop-opacity="0"/>
<stop offset="1" stop-color="white" stop-opacity="0.6"/>
</linearGradient>
<linearGradient id="paint1_linear_8960_14686" x1="47.6582" y1="-10.4164" x2="217.163" y2="243.373" gradientUnits="userSpaceOnUse">
<stop stop-color="white" stop-opacity="0.6"/>
<stop offset="0.5" stop-color="white" stop-opacity="0"/>
<stop offset="1" stop-color="white" stop-opacity="0.6"/>
</linearGradient>
<linearGradient id="paint2_linear_8960_14686" x1="206.25" y1="187" x2="127.71" y2="-2.99035" gradientUnits="userSpaceOnUse">
<stop stop-color="#138C61"/>
<stop offset="1" stop-color="#4DBA93" stop-opacity="0.99"/>
</linearGradient>
<linearGradient id="paint3_linear_8960_14686" x1="1.07139e-06" y1="-5.5" x2="211" y2="215" gradientUnits="userSpaceOnUse">
<stop stop-color="white" stop-opacity="0.6"/>
<stop offset="0.5" stop-color="white" stop-opacity="0"/>
<stop offset="1" stop-color="white" stop-opacity="0.6"/>
</linearGradient>
<clipPath id="clip0_8960_14686">
<rect width="220" height="220" rx="44" fill="white"/>
</clipPath>
<clipPath id="clip1_8960_14686">
<rect width="220" height="220" fill="white"/>
</clipPath>
</defs>
</svg>
