<svg width="298" height="272" viewBox="0 0 298 272" fill="none" xmlns="http://www.w3.org/2000/svg">
<path opacity="0.4" fill-rule="evenodd" clip-rule="evenodd" d="M90.0348 2.64066C66.1034 -1.57908 43.2825 14.4003 39.0627 38.3317L16.1411 168.326C11.9214 192.258 27.9008 215.079 51.8322 219.298L66.756 221.93C67.4892 222.242 68.2349 222.537 68.9928 222.813L193.032 267.959C215.867 276.271 241.116 264.497 249.428 241.662L294.574 117.622C302.885 94.7873 291.112 69.5382 268.277 61.2269L254.536 56.2257C249.894 40.8273 236.949 28.5457 220.029 25.5622L90.0348 2.64066Z" fill="#F2F2F2"/>
<path fill-rule="evenodd" clip-rule="evenodd" d="M67.3291 220L67.5401 220.09C68.2403 220.388 68.9527 220.67 69.6768 220.933L193.716 266.08C215.513 274.013 239.615 262.775 247.548 240.978L292.695 116.938C300.628 95.1412 289.39 71.0398 267.593 63.1063L252.91 57.7623L252.621 56.8029C248.189 42.0992 235.83 30.3792 219.682 27.5318L89.6875 4.61028C66.8439 0.582338 45.0603 15.8354 41.0323 38.679L18.1108 168.674C14.0828 191.517 29.3359 213.301 52.1795 217.329L67.3291 220ZM39.0627 38.3317C43.2824 14.4003 66.1034 -1.57908 90.0348 2.64066L220.029 25.5622C236.949 28.5457 249.894 40.8273 254.536 56.2257L268.277 61.2269C291.112 69.5382 302.885 94.7873 294.574 117.622L249.428 241.662C241.116 264.497 215.867 276.271 193.032 267.959L68.9928 222.813C68.2349 222.537 67.4892 222.242 66.756 221.93L51.8322 219.298C27.9008 215.079 11.9214 192.258 16.1411 168.326L39.0627 38.3317Z" fill="url(#paint0_linear_8960_14686)"/>
<path opacity="0.5" d="M39.0627 38.3317C43.2825 14.4003 66.1034 -1.57908 90.0348 2.64066L220.029 25.5622C243.961 29.782 259.94 52.6029 255.72 76.5343L232.799 206.529C228.579 230.46 205.758 246.44 181.827 242.22L51.8322 219.298C27.9008 215.079 11.9214 192.258 16.1411 168.326L39.0627 38.3317Z" fill="#F2F2F2"/>
<path fill-rule="evenodd" clip-rule="evenodd" d="M219.682 27.5318L89.6875 4.61028C66.8439 0.582339 45.0603 15.8354 41.0323 38.679L18.1108 168.674C14.0828 191.517 29.3359 213.301 52.1795 217.329L182.174 240.25C205.018 244.278 226.801 229.025 230.829 206.182L253.751 76.187C257.779 53.3434 242.526 31.5598 219.682 27.5318ZM90.0348 2.64066C66.1034 -1.57908 43.2824 14.4003 39.0627 38.3317L16.1411 168.326C11.9214 192.258 27.9008 215.079 51.8322 219.298L181.827 242.22C205.758 246.44 228.579 230.46 232.799 206.529L255.72 76.5343C259.94 52.6029 243.961 29.782 220.029 25.5622L90.0348 2.64066Z" fill="url(#paint1_linear_8960_14686)"/>
<g clip-path="url(#clip0_8960_14686)">
<rect width="220" height="220" fill="#F0F3FA"/>
<path d="M68.6373 106.071C68.4909 106.782 68.1035 107.421 67.5406 107.88C66.9777 108.338 66.2737 108.589 65.5475 108.589C64.8213 108.589 64.1173 108.338 63.5544 107.88C62.9915 107.421 62.6041 106.782 62.4577 106.071C62.445 105.651 62.5197 105.234 62.6771 104.845C62.8345 104.456 63.071 104.104 63.3718 103.811C63.6726 103.518 64.0309 103.292 64.4241 103.145C64.8172 102.998 65.2366 102.935 65.6555 102.959C66.0711 102.947 66.4848 103.02 66.8707 103.175C67.2567 103.33 67.6065 103.563 67.8985 103.859C68.1905 104.155 68.4183 104.508 68.5677 104.896C68.7171 105.284 68.785 105.698 68.767 106.114" fill="#44B749"/>
<path d="M41.9748 111.299H47.8519V129.277H41.9748V127.246C41.2351 128.135 40.3011 128.843 39.2447 129.315C38.1884 129.787 37.0378 130.011 35.8816 129.968C34.678 129.973 33.4868 129.726 32.384 129.244C31.2813 128.762 30.2914 128.055 29.4778 127.168C28.6642 126.281 28.0447 125.234 27.6591 124.094C27.2736 122.954 27.1304 121.746 27.2387 120.547C27.1561 119.275 27.3349 118 27.7641 116.799C28.1933 115.599 28.8639 114.499 29.7344 113.568C30.6049 112.637 31.657 111.894 32.8257 111.385C33.9944 110.876 35.255 110.611 36.5298 110.608C37.6063 110.583 38.674 110.808 39.6489 111.265C40.6237 111.722 41.4791 112.4 42.1476 113.244L41.9748 111.299ZM33.3319 120.418C33.2515 121.031 33.3036 121.653 33.4844 122.244C33.6653 122.835 33.9709 123.381 34.3805 123.844C34.79 124.306 35.2942 124.676 35.8588 124.927C36.4234 125.179 37.0353 125.306 37.6533 125.301C38.8801 125.201 40.0192 124.626 40.8269 123.697C41.6345 122.768 42.0466 121.56 41.9748 120.331C42.0485 119.722 41.9914 119.104 41.8075 118.518C41.6236 117.932 41.317 117.392 40.9081 116.934C40.4992 116.477 39.9975 116.111 39.4362 115.862C38.875 115.613 38.2672 115.487 37.6533 115.491C37.0311 115.485 36.415 115.613 35.8469 115.867C35.2789 116.121 34.7724 116.495 34.3621 116.963C33.9518 117.431 33.6473 117.981 33.4695 118.578C33.2917 119.174 33.2448 119.802 33.3319 120.418Z" fill="#0D4593"/>
<path d="M58.1369 103.392H52.2598V129.234H58.1369V103.392Z" fill="#0D4593"/>
<path d="M68.4216 111.299H62.5445V129.233H68.4216V111.299Z" fill="#0D4593"/>
<path d="M88.6458 127.288C86.7284 129.051 84.2066 130.01 81.6018 129.967C78.9327 129.975 76.3634 128.953 74.4283 127.115C73.53 126.243 72.8238 125.192 72.355 124.032C71.8862 122.871 71.6651 121.625 71.7058 120.373C71.6634 119.076 71.8885 117.783 72.367 116.576C72.8455 115.369 73.5673 114.274 74.4874 113.358C75.4075 112.441 76.5063 111.725 77.7154 111.251C78.9244 110.778 80.2179 110.559 81.5154 110.607C84.3279 110.642 87.0195 111.756 89.0347 113.718L85.1022 117.262C84.6885 116.803 84.1812 116.439 83.6147 116.193C83.0482 115.947 82.4355 115.825 81.8179 115.836C80.6718 115.836 79.5726 116.291 78.7622 117.102C77.9518 117.912 77.4965 119.011 77.4965 120.157C77.4611 120.746 77.5467 121.336 77.7479 121.891C77.9492 122.445 78.2619 122.953 78.6668 123.382C79.0716 123.811 79.5601 124.153 80.102 124.386C80.644 124.619 81.2279 124.739 81.8179 124.738C82.9427 124.71 84.0124 124.245 84.7997 123.442L88.6458 127.288Z" fill="#0D4593"/>
<path d="M95.7333 121.542C95.9011 122.491 96.4121 123.346 97.169 123.944C97.9259 124.541 98.876 124.84 99.8386 124.783C100.558 124.826 101.274 124.661 101.902 124.309C102.53 123.956 103.044 123.431 103.382 122.795L108.784 124.178C108.162 125.637 107.162 126.905 105.889 127.851C104.421 128.993 102.665 129.707 100.817 129.912C98.9682 130.118 97.0989 129.807 95.4161 129.015C93.7333 128.223 92.3028 126.98 91.2833 125.424C90.2637 123.869 89.695 122.061 89.6401 120.202C89.583 118.912 89.798 117.625 90.2709 116.423C90.7439 115.222 91.4644 114.134 92.3854 113.229C93.3065 112.324 94.4076 111.623 95.6172 111.172C96.8268 110.72 98.1179 110.528 99.4065 110.608C100.749 110.551 102.089 110.777 103.339 111.272C104.589 111.768 105.719 112.522 106.658 113.484C107.596 114.447 108.32 115.597 108.783 116.859C109.247 118.121 109.438 119.466 109.346 120.807V121.542H95.7333ZM103.339 118.43C103.171 117.545 102.68 116.754 101.961 116.211C101.242 115.668 100.347 115.412 99.4497 115.492C98.5696 115.425 97.6965 115.69 97.0011 116.233C96.3058 116.777 95.8382 117.56 95.6901 118.43H103.339Z" fill="#0D4593"/>
<path d="M118.636 129.278H112.5V103.35H118.636V113.073C119.304 112.248 120.157 111.592 121.125 111.156C122.093 110.721 123.15 110.519 124.211 110.566C125.474 110.552 126.726 110.798 127.889 111.291C129.052 111.783 130.101 112.511 130.969 113.428C131.838 114.345 132.507 115.432 132.936 116.62C133.364 117.809 133.542 119.073 133.458 120.333C133.599 121.582 133.465 122.847 133.066 124.04C132.667 125.232 132.012 126.323 131.148 127.237C130.284 128.15 129.231 128.864 128.063 129.329C126.895 129.793 125.639 129.997 124.383 129.926C123.284 130.019 122.179 129.83 121.173 129.376C120.167 128.922 119.294 128.219 118.636 127.334V129.278ZM118.636 120.635C118.636 121.781 119.091 122.881 119.902 123.691C120.712 124.501 121.811 124.957 122.957 124.957C124.103 124.957 125.203 124.501 126.013 123.691C126.824 122.881 127.279 121.781 127.279 120.635C127.326 120.027 127.251 119.415 127.058 118.835C126.865 118.256 126.558 117.721 126.155 117.262C125.753 116.803 125.262 116.429 124.713 116.163C124.164 115.896 123.567 115.742 122.957 115.709C121.731 115.829 120.598 116.417 119.794 117.351C118.989 118.284 118.575 119.491 118.636 120.722" fill="#276AB4"/>
<path d="M142.447 103.392H136.57V129.234H142.447V103.392Z" fill="#276AB4"/>
<path d="M163.234 111.299V122.621C163.351 123.649 163.216 124.691 162.839 125.655C162.463 126.619 161.856 127.476 161.073 128.152C159.227 129.393 157.053 130.056 154.828 130.056C152.604 130.056 150.43 129.393 148.584 128.152C147.868 127.469 147.317 126.631 146.972 125.702C146.628 124.774 146.499 123.779 146.596 122.794V111.299H152.473V122.189C152.473 124.047 153.381 125.084 154.98 125.084C155.303 125.106 155.627 125.055 155.929 124.937C156.23 124.819 156.502 124.636 156.725 124.401C156.948 124.166 157.116 123.884 157.218 123.577C157.319 123.269 157.352 122.943 157.313 122.621V111.299H163.234Z" fill="#276AB4"/>
<path d="M172.352 121.542C172.522 122.532 173.064 123.419 173.868 124.022C174.671 124.625 175.675 124.897 176.673 124.783C177.393 124.831 178.111 124.669 178.741 124.316C179.37 123.963 179.883 123.435 180.217 122.795L185.662 124.178C185.024 125.64 184.01 126.908 182.723 127.851C181.265 129.101 179.478 129.906 177.576 130.17C175.673 130.434 173.735 130.146 171.992 129.341C170.248 128.535 168.773 127.245 167.741 125.625C166.709 124.005 166.165 122.123 166.172 120.202C166.115 118.912 166.33 117.625 166.803 116.424C167.276 115.222 167.996 114.134 168.917 113.229C169.838 112.324 170.939 111.623 172.149 111.172C173.359 110.721 174.65 110.529 175.938 110.609C177.28 110.55 178.618 110.776 179.865 111.272C181.113 111.768 182.241 112.523 183.176 113.486C184.111 114.45 184.831 115.6 185.289 116.862C185.748 118.124 185.933 119.468 185.834 120.807V121.542H172.352ZM179.957 118.431C179.798 117.541 179.31 116.744 178.589 116.199C177.867 115.654 176.967 115.402 176.068 115.492C175.188 115.426 174.315 115.69 173.619 116.234C172.924 116.777 172.457 117.56 172.308 118.431H179.957Z" fill="#276AB4"/>
<path d="M111.031 138.611H27.7571V139.562H111.031V138.611Z" fill="#44B749"/>
<path d="M160.858 95.3528L158.178 99.6742C156.386 99.7799 154.599 99.4026 153.003 98.5816C151.406 97.7607 150.06 96.5262 149.103 95.0071C147.202 90.9449 149.968 85.2839 155.672 80.3574L159.993 81.5674C155.369 85.2839 152.949 89.4324 154.332 92.3278C155.059 93.4033 156.07 94.2558 157.252 94.79C158.435 95.3241 159.743 95.519 161.03 95.3528" fill="#44B749"/>
<path d="M160.858 95.3528L158.178 99.6742C156.386 99.7799 154.599 99.4026 153.003 98.5816C151.406 97.7607 150.06 96.5262 149.103 95.0071C147.202 90.9449 149.968 85.2839 155.672 80.3574L159.993 81.5674C155.369 85.2839 152.949 89.4324 154.332 92.3278C155.059 93.4033 156.07 94.2558 157.252 94.79C158.435 95.3241 159.743 95.519 161.03 95.3528" fill="#44B749"/>
<path d="M188.686 86.494C185.034 90.4212 180.624 93.5672 175.722 95.7418C170.808 98.1399 165.455 99.5076 159.992 99.7607L162.758 95.4393C170.594 94.5465 177.924 91.1169 183.63 85.6729L188.686 86.494Z" fill="#276AB4"/>
<path d="M189.81 85.1107L184.97 84.16C185.957 83.2623 186.673 82.1074 187.04 80.825C187.406 79.5425 187.408 78.1833 187.044 76.9C185.1 72.5786 176.154 72.8378 167.079 77.1161C165.095 78.0336 163.2 79.1331 161.418 80.4003L157.097 79.1471C159.764 77.0964 162.665 75.3701 165.74 74.0046C177.667 68.3868 189.292 69.0782 192.446 74.7393C193.007 76.5329 193.07 78.4453 192.629 80.272C192.188 82.0988 191.258 83.7712 189.94 85.1107" fill="#276AB4"/>
<path d="M173.433 90.3852C169.649 92.345 165.415 93.2694 161.16 93.0645L163.925 90.126C166.913 90.4025 169.917 89.8018 172.568 88.3974C177.495 86.107 180.649 82.5202 179.655 80.3595C178.661 78.1988 173.865 78.4149 168.938 80.7052C167.402 81.398 165.951 82.2682 164.617 83.2981L161.073 83.082C163.146 81.3427 165.442 79.8892 167.901 78.7606C175.334 75.2602 182.594 75.0442 184.106 78.242C185.619 81.4399 180.779 86.8849 173.346 90.3852" fill="#44B749"/>
<path d="M173.433 90.3852C169.649 92.345 165.415 93.2694 161.16 93.0645L163.925 90.126C166.913 90.4025 169.917 89.8018 172.568 88.3974C177.495 86.107 180.649 82.5202 179.655 80.3595C178.661 78.1988 173.865 78.4149 168.938 80.7052C167.402 81.398 165.951 82.2682 164.617 83.2981L161.073 83.082C163.146 81.3427 165.442 79.8892 167.901 78.7606C175.334 75.2602 182.594 75.0442 184.106 78.242C185.619 81.4399 180.779 86.8849 173.346 90.3852" fill="#44B749"/>
<path d="M169.975 83.6428L163.925 90.125L161.159 93.0636C160.372 93.0857 159.593 92.892 158.908 92.5036C158.222 92.1151 157.656 91.5466 157.27 90.8596C156.276 88.8286 157.918 85.8468 161.159 83.0811L164.703 83.2971L169.975 83.6428Z" fill="#0D4593"/>
<path d="M117.73 141.032C117.475 141.367 117.13 141.622 116.736 141.767C116.251 141.943 115.739 142.03 115.223 142.026C114.809 142.025 114.404 141.905 114.056 141.68C113.701 141.483 113.414 141.181 113.235 140.816C113.039 140.427 112.935 139.998 112.933 139.563C112.856 139.047 112.856 138.523 112.933 138.007C113.028 137.426 113.233 136.869 113.538 136.365C113.807 135.924 114.177 135.553 114.618 135.285C115.065 135.033 115.575 134.913 116.087 134.939C116.658 134.926 117.213 135.126 117.643 135.501C118.011 135.942 118.237 136.484 118.291 137.056H117.384C117.372 136.69 117.235 136.339 116.995 136.062C116.877 135.929 116.729 135.825 116.565 135.758C116.4 135.69 116.222 135.661 116.044 135.673C115.767 135.671 115.493 135.727 115.239 135.839C114.986 135.951 114.759 136.115 114.575 136.322C114.132 136.881 113.862 137.556 113.797 138.266V139.303C113.828 139.793 114.009 140.261 114.316 140.643C114.451 140.799 114.616 140.925 114.802 141.014C114.988 141.103 115.19 141.153 115.396 141.162C115.974 141.189 116.543 141.005 116.995 140.643L117.254 139.087H115.698V138.353H118.162L117.73 141.032Z" fill="#4C4D50"/>
<path d="M122.094 137.575H121.705C121.443 137.571 121.185 137.637 120.957 137.766C120.729 137.895 120.54 138.083 120.409 138.31L119.761 141.983H118.94L119.804 136.841H120.625V137.446C120.764 137.23 120.957 137.053 121.184 136.932C121.41 136.811 121.664 136.75 121.921 136.754H122.31L122.094 137.575Z" fill="#4C4D50"/>
<path d="M124.903 136.71C125.292 136.704 125.671 136.825 125.984 137.056C126.327 137.274 126.574 137.613 126.675 138.007C126.787 138.432 126.787 138.878 126.675 139.303C126.644 139.792 126.495 140.266 126.243 140.686C126.033 141.069 125.718 141.384 125.336 141.593C124.964 141.837 124.526 141.958 124.082 141.939C123.694 141.945 123.314 141.824 123.002 141.593C122.688 141.347 122.449 141.017 122.311 140.643C122.221 140.215 122.221 139.774 122.311 139.346C122.342 138.844 122.49 138.356 122.743 137.92C122.949 137.512 123.263 137.169 123.65 136.926C124.042 136.746 124.474 136.671 124.903 136.71ZM123.175 139.433C123.132 139.647 123.132 139.867 123.175 140.081C123.175 140.395 123.281 140.7 123.477 140.945C123.577 141.053 123.697 141.139 123.831 141.198C123.965 141.257 124.109 141.289 124.255 141.291C124.378 141.343 124.51 141.37 124.644 141.37C124.778 141.37 124.91 141.343 125.033 141.291C125.297 141.142 125.508 140.916 125.638 140.643C125.804 140.316 125.921 139.967 125.984 139.606V138.871C125.95 138.557 125.83 138.258 125.638 138.007C125.544 137.889 125.426 137.794 125.292 137.727C125.158 137.66 125.01 137.622 124.86 137.618C124.646 137.617 124.435 137.663 124.241 137.753C124.047 137.843 123.875 137.973 123.737 138.136C123.412 138.546 123.217 139.042 123.175 139.562V139.433Z" fill="#4C4D50"/>
<path d="M132.077 140.642L133.676 136.71H134.583L132.25 141.852H131.602L131.083 137.963L129.225 141.852H128.533L127.972 136.71H128.793L129.095 140.513L130.91 136.71H131.602L132.077 140.642Z" fill="#4C4D50"/>
<path d="M136.831 135.543L136.614 136.796H137.565V137.487H136.658L135.923 140.642V140.901C135.928 140.952 135.944 141.002 135.969 141.047C135.993 141.092 136.027 141.132 136.067 141.164C136.107 141.196 136.153 141.22 136.203 141.235C136.252 141.249 136.304 141.253 136.355 141.247H136.744V141.982H136.096C135.943 141.991 135.791 141.96 135.654 141.892C135.518 141.824 135.402 141.72 135.318 141.593C135.199 141.272 135.199 140.919 135.318 140.599L135.837 137.444H134.929V136.753H135.923L136.139 135.499L136.831 135.543Z" fill="#4C4D50"/>
<path d="M139.294 137.443C139.483 137.214 139.721 137.03 139.99 136.903C140.259 136.776 140.552 136.71 140.849 136.709C141.054 136.7 141.257 136.738 141.445 136.821C141.632 136.903 141.798 137.027 141.93 137.184C142.165 137.604 142.256 138.09 142.189 138.567L141.627 141.937H140.763L141.325 138.567V138.135C141.326 138.036 141.305 137.939 141.265 137.848C141.225 137.758 141.166 137.678 141.093 137.612C141.019 137.547 140.932 137.498 140.838 137.469C140.744 137.44 140.645 137.431 140.547 137.443C140.271 137.449 140.001 137.528 139.766 137.672C139.53 137.816 139.338 138.021 139.207 138.264L138.559 141.937H137.695L138.948 134.634H139.812L139.294 137.443Z" fill="#4C4D50"/>
<path d="M146.381 141.94H145.516L146.683 135.026H147.591L146.381 141.94Z" fill="#4C4D50"/>
<path d="M149.622 136.797V137.445C149.812 137.216 150.049 137.031 150.318 136.905C150.587 136.778 150.88 136.711 151.178 136.71C151.383 136.698 151.587 136.735 151.775 136.818C151.963 136.9 152.128 137.026 152.258 137.185C152.493 137.606 152.584 138.091 152.517 138.568L151.956 141.939H151.091L151.653 138.568C151.696 138.428 151.696 138.277 151.653 138.136C151.654 138.038 151.634 137.94 151.594 137.85C151.554 137.76 151.495 137.679 151.421 137.614C151.347 137.548 151.261 137.5 151.166 137.47C151.072 137.441 150.973 137.432 150.875 137.445C150.6 137.455 150.332 137.536 150.098 137.679C149.863 137.823 149.669 138.025 149.536 138.266L148.887 141.939H148.023L148.887 136.797H149.622Z" fill="#4C4D50"/>
<path d="M155.369 142.026C155.079 142.021 154.793 141.953 154.532 141.826C154.27 141.699 154.04 141.517 153.857 141.291C153.673 141.047 153.54 140.768 153.466 140.471C153.392 140.174 153.378 139.865 153.425 139.563V139.347C153.491 138.859 153.653 138.389 153.9 137.964C154.109 137.569 154.423 137.24 154.808 137.013C155.146 136.807 155.536 136.702 155.931 136.711C156.166 136.697 156.4 136.736 156.617 136.826C156.834 136.916 157.028 137.054 157.184 137.229C157.508 137.619 157.691 138.106 157.703 138.612C157.724 138.813 157.724 139.016 157.703 139.217V139.606H154.332C154.278 140.027 154.369 140.454 154.592 140.816C154.696 140.97 154.838 141.095 155.004 141.179C155.171 141.262 155.356 141.301 155.542 141.291C155.811 141.291 156.075 141.229 156.315 141.109C156.555 140.989 156.764 140.815 156.925 140.6L157.401 141.032C157.192 141.341 156.91 141.594 156.579 141.767C156.206 141.958 155.789 142.048 155.369 142.026ZM155.931 137.402C155.754 137.396 155.578 137.428 155.414 137.495C155.25 137.562 155.103 137.663 154.981 137.791C154.678 138.084 154.467 138.46 154.376 138.871H156.839C156.887 138.525 156.811 138.172 156.623 137.877C156.549 137.753 156.449 137.645 156.33 137.563C156.21 137.481 156.074 137.426 155.931 137.402Z" fill="#4C4D50"/>
<path d="M159.993 140.642L161.808 136.71H162.716L160.166 141.852H159.475L158.481 136.71H159.345L159.993 140.642Z" fill="#4C4D50"/>
<path d="M163.666 141.94H162.802L163.666 136.798H164.531L163.666 141.94ZM164.358 134.939C164.469 134.896 164.592 134.896 164.704 134.939C164.743 135.051 164.743 135.173 164.704 135.285C164.75 135.411 164.75 135.549 164.704 135.674C164.592 135.718 164.469 135.718 164.358 135.674C164.232 135.717 164.095 135.717 163.969 135.674C163.926 135.563 163.926 135.44 163.969 135.328C163.942 135.267 163.927 135.201 163.927 135.134C163.927 135.067 163.942 135.001 163.969 134.939C164.029 134.909 164.096 134.893 164.163 134.893C164.231 134.893 164.298 134.909 164.358 134.939Z" fill="#4C4D50"/>
<path d="M167.297 135.543V136.796H168.247V137.487H167.34L166.778 140.642V140.901C166.783 140.952 166.799 141.002 166.824 141.047C166.848 141.092 166.882 141.132 166.922 141.164C166.962 141.196 167.008 141.22 167.058 141.235C167.107 141.249 167.159 141.253 167.21 141.247H167.599V141.982H166.951C166.798 141.991 166.646 141.96 166.509 141.892C166.373 141.824 166.257 141.72 166.173 141.593C166.054 141.272 166.054 140.919 166.173 140.599L166.692 137.444H165.784V136.753H166.173V135.499L167.297 135.543Z" fill="#4C4D50"/>
<path d="M171.315 141.939C171.298 141.839 171.298 141.737 171.315 141.637V141.378C170.927 141.774 170.401 142.006 169.846 142.026C169.43 142.029 169.029 141.875 168.722 141.594C168.576 141.424 168.468 141.225 168.405 141.01C168.342 140.795 168.327 140.569 168.36 140.347C168.393 140.126 168.473 139.914 168.595 139.726C168.717 139.539 168.879 139.38 169.068 139.26C169.588 138.946 170.19 138.795 170.797 138.828H171.704V138.396C171.758 138.281 171.786 138.155 171.786 138.028C171.786 137.901 171.758 137.776 171.704 137.661C171.622 137.573 171.521 137.504 171.409 137.459C171.297 137.414 171.177 137.395 171.056 137.402C170.782 137.402 170.513 137.477 170.278 137.618C170.166 137.68 170.069 137.767 169.994 137.872C169.919 137.976 169.869 138.096 169.846 138.223H168.982C169.015 137.921 169.135 137.636 169.327 137.402C169.551 137.181 169.815 137.005 170.105 136.883C170.448 136.821 170.8 136.821 171.143 136.883C171.366 136.876 171.588 136.914 171.797 136.996C172.005 137.078 172.194 137.201 172.352 137.359C172.507 137.525 172.623 137.724 172.69 137.941C172.757 138.158 172.775 138.387 172.741 138.612L172.309 141.118V141.507C172.288 141.679 172.288 141.854 172.309 142.026L171.315 141.939ZM169.976 141.248C170.231 141.309 170.498 141.309 170.754 141.248C170.989 141.083 171.194 140.878 171.359 140.643V139.563H170.926C170.493 139.533 170.059 139.622 169.673 139.822C169.529 139.882 169.407 139.985 169.322 140.116C169.238 140.247 169.194 140.4 169.198 140.556C169.155 140.652 169.133 140.755 169.133 140.859C169.133 140.963 169.155 141.066 169.198 141.161C169.315 141.228 169.444 141.27 169.578 141.284C169.712 141.299 169.847 141.287 169.976 141.248Z" fill="#4C4D50"/>
<path d="M177.97 139.388C177.939 139.89 177.791 140.379 177.538 140.814C177.362 141.179 177.094 141.492 176.76 141.721C176.437 141.926 176.062 142.031 175.68 142.024C175.41 142.031 175.143 141.972 174.902 141.851C174.661 141.731 174.453 141.552 174.297 141.332V141.937H173.519L174.815 134.634H175.68L175.161 137.357C175.351 137.145 175.584 136.977 175.845 136.865C176.107 136.753 176.389 136.699 176.674 136.709C176.889 136.698 177.103 136.74 177.299 136.83C177.494 136.921 177.665 137.057 177.797 137.227C178.086 137.662 178.237 138.174 178.229 138.696V139.388H177.97ZM177.149 138.869C177.268 138.534 177.268 138.168 177.149 137.832C177.072 137.708 176.964 137.606 176.835 137.538C176.705 137.469 176.56 137.437 176.414 137.443C176.132 137.446 175.855 137.523 175.612 137.667C175.369 137.811 175.169 138.017 175.031 138.264L174.643 140.468C174.72 140.697 174.864 140.898 175.057 141.044C175.249 141.191 175.481 141.276 175.723 141.289C175.88 141.3 176.037 141.278 176.186 141.226C176.334 141.174 176.471 141.093 176.587 140.987C176.87 140.747 177.079 140.432 177.192 140.079C177.244 139.676 177.229 139.268 177.149 138.869Z" fill="#4C4D50"/>
<path d="M179.57 141.937H178.749L180.002 134.634H180.866L179.57 141.937Z" fill="#4C4D50"/>
<path d="M183.199 142.026C182.914 142.028 182.632 141.962 182.377 141.834C182.121 141.707 181.9 141.521 181.73 141.291C181.539 141.05 181.398 140.772 181.316 140.475C181.234 140.178 181.214 139.868 181.255 139.563V139.347C181.286 138.858 181.434 138.384 181.687 137.964C181.908 137.579 182.22 137.252 182.594 137.013C182.947 136.804 183.351 136.699 183.761 136.711C183.989 136.697 184.217 136.737 184.427 136.827C184.637 136.917 184.824 137.054 184.971 137.229C185.295 137.618 185.478 138.106 185.49 138.612C185.511 138.813 185.511 139.016 185.49 139.217V139.606H182.162C182.075 140.022 182.152 140.456 182.378 140.816C182.482 140.97 182.624 141.095 182.791 141.179C182.958 141.262 183.143 141.301 183.329 141.291C183.598 141.295 183.864 141.234 184.104 141.113C184.345 140.993 184.553 140.817 184.712 140.6L185.23 141.032C185.006 141.343 184.709 141.595 184.366 141.767C184.007 141.955 183.604 142.044 183.199 142.026ZM183.761 137.402C183.585 137.401 183.41 137.435 183.247 137.502C183.084 137.568 182.935 137.667 182.81 137.791C182.508 138.084 182.297 138.46 182.205 138.871H184.669C184.734 138.714 184.768 138.545 184.768 138.374C184.768 138.204 184.734 138.035 184.669 137.877C184.575 137.723 184.441 137.597 184.281 137.514C184.121 137.43 183.941 137.391 183.761 137.402Z" fill="#4C4D50"/>
</g>
<rect x="1" y="1" width="218" height="218" rx="43" stroke="url(#paint2_linear_8960_14686)" stroke-width="2"/>
<defs>
<linearGradient id="paint0_linear_8960_14686" x1="15.4653" y1="-4.75166" x2="272.304" y2="276.753" gradientUnits="userSpaceOnUse">
<stop stop-color="white" stop-opacity="0.6"/>
<stop offset="0.5" stop-color="white" stop-opacity="0"/>
<stop offset="1" stop-color="white" stop-opacity="0.6"/>
</linearGradient>
<linearGradient id="paint1_linear_8960_14686" x1="47.6582" y1="-10.4164" x2="217.163" y2="243.373" gradientUnits="userSpaceOnUse">
<stop stop-color="white" stop-opacity="0.6"/>
<stop offset="0.5" stop-color="white" stop-opacity="0"/>
<stop offset="1" stop-color="white" stop-opacity="0.6"/>
</linearGradient>
<linearGradient id="paint2_linear_8960_14686" x1="1.07139e-06" y1="-5.5" x2="211" y2="215" gradientUnits="userSpaceOnUse">
<stop stop-color="white" stop-opacity="0.6"/>
<stop offset="0.5" stop-color="white" stop-opacity="0"/>
<stop offset="1" stop-color="white" stop-opacity="0.6"/>
</linearGradient>
<clipPath id="clip0_8960_14686">
<rect width="220" height="220" rx="44" fill="white"/>
</clipPath>
</defs>
</svg>
