<!-- by TradingView --><svg width="18" height="18" viewBox="0 0 18 18" xmlns="http://www.w3.org/2000/svg"><path fill="url(#a)" d="M0 0h18v18H0z"/><path d="M10.1 4c1.53 0 2.4.78 2.4 1.85s-.78 1.86-1.45 1.86c-.17 0-.25-.1-.25-.2 0-.34.48-.74.48-1.6 0-.72-.35-1.2-1.08-1.2-1.54 0-3.61 2.31-3.61 5.13 0 1.96.78 3.2 2.27 3.2 1.26 0 2.27-.98 2.95-2.2 0 .69-.17 1.38-.66 1.89A3.72 3.72 0 0 1 8.51 14C6.29 14 5 12.43 5 9.83 5 6.55 7.56 4 10.1 4Z" fill="#fff"/><defs><linearGradient id="a" x1="3.27" y1="1.49" x2="15.4" y2="18" gradientUnits="userSpaceOnUse"><stop stop-color="#01C3CC"/><stop offset=".54" stop-color="#5343F0"/><stop offset="1" stop-color="#7C2AE8"/></linearGradient></defs></svg>