<!-- by TradingView --><svg width="18" height="18" viewBox="0 0 18 18" xmlns="http://www.w3.org/2000/svg"><path fill="#5865F2" d="M0 0h18v18H0z"/><path d="M10.4 5c.73.13 1.43.36 2.07.67a9.16 9.16 0 0 1 1.49 5.99A8.14 8.14 0 0 1 11.43 13c-.2-.29-.39-.6-.55-.92.3-.12.59-.26.86-.43a5.2 5.2 0 0 1-.21-.17c-1.63.8-3.41.8-5.06 0l-.2.17c.26.17.55.31.85.43-.16.32-.34.63-.55.92a8.15 8.15 0 0 1-2.53-1.34 9.17 9.17 0 0 1 1.49-5.99A7.93 7.93 0 0 1 7.59 5c.09.17.2.39.27.57a7.33 7.33 0 0 1 2.28 0l.27-.57ZM7 8a1 1 0 1 0 0 2 1 1 0 0 0 1-1 1 1 0 0 0-1-1Zm4 0a1 1 0 1 0 0 2 1 1 0 0 0 1-1 1 1 0 0 0-1-1Z" fill="#fff"/></svg>