<!-- by TradingView --><svg width="18" height="18" viewBox="0 0 18 18" xmlns="http://www.w3.org/2000/svg"><path fill="#7132F5" d="M0 0h18v18H0z"/><path d="M9 4C6.24 4 4 6.28 4 9.1v2.17c0 .4.32.73.71.73.4 0 .72-.33.72-.73V9.1c0-.4.32-.73.71-.73.4 0 .72.33.72.73v2.18c0 .4.32.73.71.73.4 0 .72-.33.72-.73V9.1c0-.4.31-.73.7-.73.4 0 .72.33.72.73v2.18c0 .4.32.73.72.73.4 0 .71-.33.71-.73V9.1c0-.4.32-.73.72-.73.4 0 .71.33.71.73v2.18c0 .4.32.73.72.73.4 0 .71-.33.71-.73V9.1C14 6.28 11.76 4 9 4Z" fill="#fff"/></svg>