<!-- by TradingView --><svg width="18" height="18" viewBox="0 0 18 18" xmlns="http://www.w3.org/2000/svg"><path fill="#F0F3FA" d="M0 0h18v18H0z"/><path d="M10 4.71a2.46 2.46 0 0 1 2.46.56 2.51 2.51 0 0 1 .71 2.45l.01.02a2.51 2.51 0 0 1-1 4.27v.01a2.46 2.46 0 0 1-4.16 1.26h-.03c-.87.27-1.79.08-2.45-.55a2.51 2.51 0 0 1-.71-2.45l-.01-.02a2.51 2.51 0 0 1 1-4.27v-.01a2.46 2.46 0 0 1 4.16-1.26Zm-2.76 4.6V6.48c0-.16.06-.27.2-.35L9.37 5a.01.01 0 0 0 0-.02c-.4-.3-.84-.42-1.34-.37-1.02.1-1.68.9-1.68 1.92v2.14c0 .08.01.14.07.18l.8.48a.01.01 0 0 0 .02-.01Zm5.4-2a1.9 1.9 0 0 0-.95-1.87 1.95 1.95 0 0 0-1.88-.02l-1.89 1.1c-.07.03-.1.1-.1.2a71.8 71.8 0 0 1 .02.9l2.34-1.35c.18-.1.32-.19.48-.1a1094.68 1094.68 0 0 1 1.98 1.14Zm-6.9-.64c-.7.32-1.15.99-1.14 1.76 0 .64.36 1.32.92 1.65l1.88 1.1c.07.03.14.03.22-.02a68.44 68.44 0 0 1 .77-.47L6.08 9.33c-.18-.1-.32-.18-.32-.37a1076.06 1076.06 0 0 1 0-2.3h-.02Zm6.54 4.66c.7-.32 1.13-.99 1.13-1.76-.01-.64-.37-1.32-.93-1.65l-1.88-1.1c-.07-.03-.14-.02-.22.02a67.34 67.34 0 0 1-.78.48l2.34 1.35c.18.1.3.18.3.37v2.28h.02a.02.02 0 0 0 .01.02ZM7.82 9a297.71 297.71 0 0 0 .01.7l.02.02 1.13.63h.03l1.14-.63.02-.02V8.33a.06.06 0 0 0-.02-.05L9 7.65h-.03l-1.13.63a.06.06 0 0 0-.03.05V9Zm2.94-.31v2.84a.4.4 0 0 1-.2.35 928.8 928.8 0 0 0-1.93 1.14c.4.3.84.42 1.34.37 1.02-.1 1.68-.9 1.68-1.93V9.33c0-.09 0-.15-.06-.18a59.55 59.55 0 0 0-.83-.46Zm-5.4 2a1.9 1.9 0 0 0 .95 1.87c.55.32 1.32.35 1.88.02l1.89-1.1c.07-.03.1-.1.1-.2a72.1 72.1 0 0 1-.02-.9l-2.35 1.35c-.18.1-.31.19-.47.1a1100.54 1100.54 0 0 1-1.98-1.14Z"/></svg>