<svg width="298" height="272" viewBox="0 0 298 272" fill="none" xmlns="http://www.w3.org/2000/svg">
<path opacity="0.4" fill-rule="evenodd" clip-rule="evenodd" d="M90.0348 2.64066C66.1034 -1.57908 43.2825 14.4003 39.0627 38.3317L16.1411 168.326C11.9214 192.258 27.9008 215.079 51.8322 219.298L66.756 221.93C67.4892 222.242 68.2349 222.537 68.9928 222.813L193.032 267.959C215.867 276.271 241.116 264.497 249.428 241.662L294.574 117.622C302.885 94.7873 291.112 69.5382 268.277 61.2269L254.536 56.2257C249.894 40.8273 236.949 28.5457 220.029 25.5622L90.0348 2.64066Z" fill="#F2F2F2"/>
<path fill-rule="evenodd" clip-rule="evenodd" d="M67.3291 220L67.5401 220.09C68.2403 220.388 68.9527 220.67 69.6768 220.933L193.716 266.08C215.513 274.013 239.615 262.775 247.548 240.978L292.695 116.938C300.628 95.1412 289.39 71.0398 267.593 63.1063L252.91 57.7623L252.621 56.8029C248.189 42.0992 235.83 30.3792 219.682 27.5318L89.6875 4.61028C66.8439 0.582338 45.0603 15.8354 41.0323 38.679L18.1108 168.674C14.0828 191.517 29.3359 213.301 52.1795 217.329L67.3291 220ZM39.0627 38.3317C43.2824 14.4003 66.1034 -1.57908 90.0348 2.64066L220.029 25.5622C236.949 28.5457 249.894 40.8273 254.536 56.2257L268.277 61.2269C291.112 69.5382 302.885 94.7873 294.574 117.622L249.428 241.662C241.116 264.497 215.867 276.271 193.032 267.959L68.9928 222.813C68.2349 222.537 67.4892 222.242 66.756 221.93L51.8322 219.298C27.9008 215.079 11.9214 192.258 16.1411 168.326L39.0627 38.3317Z" fill="url(#paint0_linear_8960_14686)"/>
<path opacity="0.5" d="M39.0627 38.3317C43.2825 14.4003 66.1034 -1.57908 90.0348 2.64066L220.029 25.5622C243.961 29.782 259.94 52.6029 255.72 76.5343L232.799 206.529C228.579 230.46 205.758 246.44 181.827 242.22L51.8322 219.298C27.9008 215.079 11.9214 192.258 16.1411 168.326L39.0627 38.3317Z" fill="#F2F2F2"/>
<path fill-rule="evenodd" clip-rule="evenodd" d="M219.682 27.5318L89.6875 4.61028C66.8439 0.582339 45.0603 15.8354 41.0323 38.679L18.1108 168.674C14.0828 191.517 29.3359 213.301 52.1795 217.329L182.174 240.25C205.018 244.278 226.801 229.025 230.829 206.182L253.751 76.187C257.779 53.3434 242.526 31.5598 219.682 27.5318ZM90.0348 2.64066C66.1034 -1.57908 43.2824 14.4003 39.0627 38.3317L16.1411 168.326C11.9214 192.258 27.9008 215.079 51.8322 219.298L181.827 242.22C205.758 246.44 228.579 230.46 232.799 206.529L255.72 76.5343C259.94 52.6029 243.961 29.782 220.029 25.5622L90.0348 2.64066Z" fill="url(#paint1_linear_8960_14686)"/>
<g clip-path="url(#clip0_8960_14686)">
<rect width="220" height="220" fill="#F2F2F2"/>
<path d="M40.1159 131.244L109.748 48.1281C109.989 47.822 110.292 47.5735 110.636 47.3995C110.981 47.2307 111.358 47.1431 111.74 47.1431C112.122 47.1431 112.499 47.2307 112.844 47.3995C113.187 47.5735 113.49 47.822 113.732 48.1281L183.81 131.762C185.592 133.873 184.323 137.511 181.813 137.5L42.113 136.978C39.5923 136.967 38.3447 133.356 40.1159 131.244Z" fill="#00BDF2"/>
<path d="M36.1506 163.023L107.869 79.4793C108.099 79.1955 108.39 78.9667 108.72 78.8097C109.048 78.6527 109.407 78.5713 109.771 78.5713C110.134 78.5713 110.493 78.6527 110.822 78.8097C111.15 78.9667 111.439 79.1958 111.668 79.4793L183.848 163.572C185.546 165.549 184.342 168.934 181.952 168.928L38.0422 168.401C35.6515 168.401 34.4587 165.016 36.1506 163.039V163.023Z" fill="#223369"/>
<path d="M100.607 117.925C100.274 117.949 99.9398 117.907 99.6272 117.802C99.3145 117.697 99.0315 117.532 98.7978 117.318C98.4217 116.929 98.2148 116.43 98.2151 115.915C98.2083 115.41 98.4167 114.921 98.7978 114.547C99.0321 114.335 99.3155 114.17 99.6278 114.065C99.9404 113.961 100.275 113.918 100.607 113.941H123.317C123.623 113.91 123.933 113.939 124.226 114.024C124.519 114.11 124.788 114.251 125.015 114.438C125.441 114.812 125.691 115.318 125.713 115.852C125.734 116.386 125.526 116.907 125.131 117.308C124.896 117.527 124.61 117.697 124.293 117.806C123.982 117.911 123.649 117.954 123.317 117.93H119.987C118.555 117.93 117.312 117.93 116.368 117.875C115.425 117.82 114.792 117.796 114.581 117.756V117.985C115.542 118.38 116.401 118.951 117.101 119.661C117.962 120.506 118.594 121.517 118.949 122.616H123.305C123.613 122.585 123.923 122.616 124.216 122.705C124.658 122.844 125.04 123.104 125.307 123.449C125.574 123.794 125.713 124.205 125.703 124.625C125.708 125.132 125.5 125.622 125.12 125.998C124.885 126.21 124.6 126.375 124.287 126.48C123.974 126.584 123.639 126.627 123.305 126.605H119.321C119.176 128.151 118.651 129.649 117.783 130.992C117.016 132.151 116.004 133.164 114.803 133.977C113.626 134.76 112.314 135.365 110.918 135.767C109.571 136.162 108.179 136.422 106.767 136.543L120.642 148.685C120.949 148.944 121.194 149.256 121.364 149.602C121.534 149.949 121.624 150.322 121.629 150.7C121.648 151.358 121.383 151.997 120.891 152.485C120.632 152.725 120.32 152.914 119.976 153.042C119.624 153.171 119.245 153.228 118.866 153.212C118.413 153.212 117.963 153.147 117.534 153.018C117.024 152.844 116.566 152.566 116.196 152.207L99.8467 137.628C99.4413 137.308 99.1077 136.921 98.8644 136.488C98.6591 136.111 98.5545 135.695 98.5592 135.275C98.5441 134.953 98.6026 134.631 98.7312 134.33C98.8564 134.03 99.0448 133.755 99.2862 133.519C99.5304 133.288 99.8264 133.107 100.154 132.987C100.483 132.867 100.835 132.811 101.19 132.823H101.989C103.259 132.823 104.526 132.718 105.774 132.509C106.958 132.328 108.1 131.971 109.154 131.455C110.134 130.964 110.999 130.309 111.701 129.525C112.438 128.656 112.9 127.625 113.038 126.54H100.607C100.3 126.565 99.9907 126.535 99.6969 126.451C99.4043 126.361 99.1357 126.216 98.9088 126.028C98.6825 125.837 98.5046 125.604 98.3871 125.346C98.2656 125.087 98.2071 124.807 98.2151 124.526C98.2098 124.022 98.418 123.534 98.7978 123.163C99.0312 122.944 99.3155 122.774 99.6303 122.665C99.9423 122.562 100.275 122.52 100.607 122.541H112.778C111.707 119.412 108.582 117.855 103.371 117.855L100.607 117.925Z" fill="white"/>
</g>
<rect x="1" y="1" width="218" height="218" rx="43" stroke="url(#paint2_linear_8960_14686)" stroke-width="2"/>
<defs>
<linearGradient id="paint0_linear_8960_14686" x1="15.4653" y1="-4.75166" x2="272.304" y2="276.753" gradientUnits="userSpaceOnUse">
<stop stop-color="white" stop-opacity="0.6"/>
<stop offset="0.5" stop-color="white" stop-opacity="0"/>
<stop offset="1" stop-color="white" stop-opacity="0.6"/>
</linearGradient>
<linearGradient id="paint1_linear_8960_14686" x1="47.6582" y1="-10.4164" x2="217.163" y2="243.373" gradientUnits="userSpaceOnUse">
<stop stop-color="white" stop-opacity="0.6"/>
<stop offset="0.5" stop-color="white" stop-opacity="0"/>
<stop offset="1" stop-color="white" stop-opacity="0.6"/>
</linearGradient>
<linearGradient id="paint2_linear_8960_14686" x1="1.07139e-06" y1="-5.5" x2="211" y2="215" gradientUnits="userSpaceOnUse">
<stop stop-color="white" stop-opacity="0.6"/>
<stop offset="0.5" stop-color="white" stop-opacity="0"/>
<stop offset="1" stop-color="white" stop-opacity="0.6"/>
</linearGradient>
<clipPath id="clip0_8960_14686">
<rect width="220" height="220" rx="44" fill="white"/>
</clipPath>
</defs>
</svg>
